<svg width="72" height="72" viewBox="0 0 72 72" fill="none" xmlns="http://www.w3.org/2000/svg">
<path d="M36 0.299805C55.7166 0.299805 71.7002 16.2834 71.7002 36C71.7002 55.7166 55.7166 71.7002 36 71.7002C16.2834 71.7002 0.299805 55.7166 0.299805 36C0.299805 16.2834 16.2834 0.299805 36 0.299805Z" fill="#AE8B58" stroke="#AE8B58" stroke-width="0.6"/>
<g clip-path="url(#clip0_364_880)">
<path d="M28.1576 36.5596C28.8943 36.5596 29.4909 36.0265 29.4909 35.3681C29.4909 35.2803 29.4787 35.1938 29.4581 35.1114L35.0696 32.3254C35.3096 32.5357 35.6379 32.6658 35.9998 32.6658C36.7366 32.6658 37.3332 32.1327 37.3332 31.4743C37.3332 31.2857 37.2798 31.11 37.1922 30.9514L43.1686 25.7797C43.3675 25.8845 43.5953 25.9485 43.8421 25.9485C44.5789 25.9485 45.1762 25.4154 45.1762 24.757C45.1762 24.1 44.5789 23.5669 43.8421 23.5669C43.1069 23.5669 42.5096 24.1 42.5096 24.757C42.5096 24.9456 42.5629 25.1226 42.6505 25.2813L36.6749 30.453C36.476 30.3482 36.2467 30.2828 35.9998 30.2828C35.2646 30.2828 34.6673 30.8159 34.6673 31.4743C34.6673 31.5621 34.6802 31.6486 34.7 31.731L29.0886 34.517C28.8486 34.3066 28.521 34.1766 28.1576 34.1766C27.4216 34.1766 26.8242 34.7097 26.8242 35.3681C26.8242 36.0265 27.4216 36.5596 28.1576 36.5596Z" fill="white"/>
<path d="M45.6948 44.0068V28.5542H41.9904V44.0068H37.8525V34.2979H34.1481V44.0068H30.0087V37.9962H26.3058V44.0068H24.6426V45.0281H47.3565V44.0068H45.6948Z" fill="white"/>
</g>
<defs>
<clipPath id="clip0_364_880">
<rect width="32" height="32" fill="white" transform="translate(20 20)"/>
</clipPath>
</defs>
</svg>
