<svg width="24" height="24" viewBox="0 0 24 24" fill="none" xmlns="http://www.w3.org/2000/svg">
<path d="M14.038 6H16.5764C16.8099 6 16.9994 5.832 16.9994 5.625V3.375C16.9994 3.168 16.8099 3 16.5764 3H14.038C11.4726 3 9.38444 4.85025 9.38444 7.125V9.75H6.42306C6.18953 9.75 6 9.918 6 10.125V12.375C6 12.582 6.18953 12.75 6.42306 12.75H9.38444V20.625C9.38444 20.832 9.57397 21 9.8075 21H12.3458C12.5794 21 12.7689 20.832 12.7689 20.625V12.75H15.7303C15.9122 12.75 16.0738 12.6465 16.1322 12.4935L16.9783 10.2435C17.0214 10.1295 16.9994 10.0035 16.9199 9.90525C16.8395 9.80775 16.7126 9.75 16.5764 9.75H12.7689V7.125C12.7689 6.50475 13.3383 6 14.038 6Z" fill="white"/>
</svg>
