<svg width="1598" height="209" viewBox="0 0 1598 209" fill="none" xmlns="http://www.w3.org/2000/svg">
<g clip-path="url(#clip0_2109_330)">
<path d="M155.319 187.928C155.319 200.583 152.826 211.467 147.84 220.578C142.854 229.437 136.372 236.65 128.394 242.218C120.665 247.787 111.815 251.836 101.843 254.367C92.1199 256.898 82.397 258.164 72.6741 258.164C62.7018 258.164 54.1008 257.151 46.8709 255.127C39.641 253.102 33.0344 251.204 27.0511 249.432C23.0622 248.166 19.4472 247.154 16.2063 246.395C12.9653 245.382 9.72432 244.876 6.48334 244.876V201.596H10.2229C10.2229 211.213 12.5913 218.933 17.3281 224.754C22.3143 230.323 28.0483 234.625 34.5303 237.663C41.0122 240.7 47.4942 242.725 53.9761 243.737C60.4581 244.496 65.1949 244.876 68.1866 244.876C78.9067 244.876 88.131 243.357 95.8595 240.32C103.588 237.03 109.945 232.854 114.931 227.792C119.918 222.476 123.532 216.655 125.776 210.328C128.269 204 129.516 197.546 129.516 190.965C129.516 182.613 127.771 175.653 124.28 170.084C120.79 164.263 116.178 159.201 110.444 154.898C104.959 150.596 98.6019 146.926 91.372 143.888C84.1421 140.851 76.7876 137.814 69.3084 134.777C60.832 131.486 52.4803 128.07 44.2532 124.526C36.0261 120.983 28.6716 116.68 22.1896 111.618C15.7077 106.303 10.4722 100.102 6.48334 93.0149C2.49445 85.675 0.5 76.6898 0.5 66.0596C0.5 54.9231 2.6191 45.3052 6.8573 37.206C11.0955 28.8536 16.7049 22.0199 23.6854 16.7047C30.9153 11.3896 39.0178 7.4665 47.9928 4.93549C57.2171 2.15138 66.5661 0.759318 76.0397 0.759318C82.5216 0.759318 88.6296 1.26552 94.3637 2.27793C100.098 3.03723 105.582 4.04963 110.818 5.31514C115.056 6.32755 119.17 7.21341 123.159 7.97272C127.147 8.47891 131.012 8.73201 134.751 8.73201V47.8363H131.012C130.513 34.6749 125.402 25.8164 115.679 21.2605C105.956 16.4516 92.4939 14.0471 75.2918 14.0471C65.3195 14.0471 57.0924 15.8189 50.6105 19.3623C44.3778 22.6526 39.3917 26.8288 35.6521 31.8908C31.9125 36.6998 29.2948 42.0149 27.799 47.8363C26.5525 53.4045 25.9292 58.34 25.9292 62.6427C25.9292 69.7295 27.425 75.804 30.4167 80.866C33.6577 85.9281 37.8959 90.3574 43.1313 94.1539C48.3667 97.9504 54.3501 101.367 61.0813 104.404C68.0619 107.442 75.2918 110.352 82.771 113.137C91.2474 116.427 99.8484 119.97 108.574 123.767C117.3 127.563 125.028 132.246 131.76 137.814C138.74 143.382 144.35 150.216 148.588 158.315C153.075 166.414 155.319 176.285 155.319 187.928Z" fill="#F2F5F5"/>
<path d="M267.927 251.33H269.797V255.127H216.695V251.33H218.565C220.559 251.33 222.304 250.571 223.8 249.052C225.296 247.534 226.543 245.762 227.54 243.737C228.786 241.712 229.659 239.561 230.157 237.283C230.656 234.752 230.905 232.474 230.905 230.449V18.603H187.526C183.537 18.603 180.047 19.4888 177.055 21.2605C174.064 23.0323 171.571 25.3102 169.576 28.0943C167.582 30.6253 166.086 33.536 165.089 36.8263C164.091 39.8635 163.593 42.9008 163.593 45.938H159.853V4.55584H327.761V45.938H324.021C324.021 42.9008 323.523 39.8635 322.525 36.8263C321.528 33.536 320.032 30.6253 318.038 28.0943C316.043 25.3102 313.55 23.0323 310.559 21.2605C307.567 19.4888 304.077 18.603 300.088 18.603H255.961V230.449C255.961 232.474 256.21 234.752 256.709 237.283C257.207 239.561 257.955 241.712 258.952 243.737C260.199 245.762 261.445 247.534 262.692 249.052C264.188 250.571 265.933 251.33 267.927 251.33Z" fill="#F2F5F5"/>
<path d="M399.102 251.33H400.972V255.127H348.244V251.33H350.114C351.859 251.33 353.479 250.571 354.975 249.052C356.471 247.534 357.717 245.762 358.715 243.737C359.961 241.712 360.834 239.561 361.332 237.283C361.831 234.752 362.08 232.474 362.08 230.449V28.0943C362.08 26.3226 361.831 24.2978 361.332 22.0199C360.834 19.7419 359.961 17.5906 358.715 15.5658C357.717 13.5409 356.471 11.8958 354.975 10.6303C353.479 9.11167 351.859 8.35236 350.114 8.35236H348.244V4.55584H413.313C438.243 4.55584 457.44 9.49132 470.902 19.3623C484.614 29.2333 491.47 43.7866 491.47 63.0223C491.47 72.6402 489.85 81.1191 486.609 88.4591C483.617 95.5459 479.503 101.747 474.268 107.062C469.032 112.124 462.8 116.3 455.57 119.591C448.589 122.628 441.11 124.906 433.132 126.424L460.057 168.186C466.539 178.31 473.146 188.308 479.877 198.179C486.609 207.797 493.215 217.794 499.697 228.171C501.442 230.702 503.312 233.36 505.306 236.144C507.55 238.928 509.794 241.459 512.038 243.737C514.531 246.015 517.024 247.913 519.517 249.432C522.259 250.697 525.002 251.33 527.744 251.33V255.127H511.664C501.692 255.127 493.464 252.722 486.982 247.913C480.75 242.851 475.514 237.03 471.276 230.449C460.057 213.744 448.839 196.787 437.62 179.576C426.65 162.365 415.681 145.407 404.712 128.702C401.969 128.449 398.978 128.196 395.737 127.943C392.745 127.437 389.878 126.931 387.135 126.424V230.449C387.135 232.474 387.385 234.752 387.883 237.283C388.382 239.561 389.13 241.712 390.127 243.737C391.374 245.762 392.62 247.534 393.867 249.052C395.363 250.571 397.108 251.33 399.102 251.33ZM387.135 17.464V113.896H389.005C391 114.149 394.116 114.402 398.354 114.655C402.842 114.655 408.326 114.655 414.808 114.655C420.044 114.655 425.529 113.896 431.263 112.377C437.246 110.605 442.731 107.821 447.717 104.025C452.952 99.9752 457.19 94.7866 460.431 88.4591C463.922 82.1315 465.667 74.1588 465.667 64.541C465.667 54.9231 463.797 47.0769 460.057 41.0025C456.567 34.9281 451.581 30.1191 445.099 26.5757C438.866 23.0323 431.263 20.6278 422.288 19.3623C413.313 18.0968 403.465 17.464 392.745 17.464H387.135Z" fill="#F2F5F5"/>
<path d="M693.048 251.33H694.918C700.902 251.33 703.893 248.546 703.893 242.978C703.893 240.953 703.519 238.802 702.771 236.524L669.115 144.268H603.672L571.138 235.005C570.39 237.03 570.016 238.928 570.016 240.7C570.016 243.99 570.888 246.648 572.634 248.673C574.379 250.444 576.249 251.33 578.243 251.33H580.113V255.127H538.603V251.33H540.473C543.714 251.33 546.831 249.432 549.822 245.635C553.063 241.586 555.681 236.903 557.675 231.588L643.312 0L727.079 229.31C728.824 234.372 731.192 239.308 734.184 244.117C737.425 248.926 741.538 251.33 746.525 251.33H748.394V255.127H693.048V251.33ZM607.412 131.36H665.002L636.207 52.0124L607.412 131.36Z" fill="#F2F5F5"/>
<path d="M830.692 251.33H832.561V255.127H779.459V251.33H781.329C783.323 251.33 785.069 250.571 786.564 249.052C788.06 247.534 789.307 245.762 790.304 243.737C791.551 241.712 792.423 239.561 792.922 237.283C793.42 234.752 793.67 232.474 793.67 230.449V18.603H750.29C746.302 18.603 742.811 19.4888 739.82 21.2605C736.828 23.0323 734.335 25.3102 732.34 28.0943C730.346 30.6253 728.85 33.536 727.853 36.8263C726.856 39.8635 726.357 42.9008 726.357 45.938H722.617V4.55584H890.525V45.938H886.785C886.785 42.9008 886.287 39.8635 885.29 36.8263C884.292 33.536 882.797 30.6253 880.802 28.0943C878.808 25.3102 876.315 23.0323 873.323 21.2605C870.331 19.4888 866.841 18.603 862.852 18.603H818.725V230.449C818.725 232.474 818.974 234.752 819.473 237.283C819.971 239.561 820.719 241.712 821.717 243.737C822.963 245.762 824.21 247.534 825.456 249.052C826.952 250.571 828.697 251.33 830.692 251.33Z" fill="#F2F5F5"/>
<path d="M911.008 251.33H912.878C914.872 251.33 916.617 250.697 918.113 249.432C919.609 247.913 920.856 246.141 921.853 244.117C923.099 242.092 923.972 239.941 924.471 237.663C925.218 235.385 925.592 233.233 925.592 231.208V28.0943C925.592 26.3226 925.218 24.2978 924.471 22.0199C923.972 19.7419 923.099 17.5906 921.853 15.5658C920.856 13.5409 919.609 11.8958 918.113 10.6303C916.617 9.11167 914.872 8.35236 912.878 8.35236H911.008V4.55584H1054.98V39.8635H1051.24C1050.74 34.0422 1048.5 28.9802 1044.51 24.6774C1040.52 20.1216 1034.29 17.8437 1025.81 17.8437H950.648V113.896H1012.72C1018.46 113.896 1023.2 112.124 1026.94 108.581C1030.92 105.037 1032.92 100.861 1032.92 96.0521H1036.66V143.509H1032.92C1032.92 138.953 1031.05 135.03 1027.31 131.739C1023.57 128.449 1018.71 126.804 1012.72 126.804H950.648V241.839H1032.54C1037.28 241.839 1041.4 240.7 1044.89 238.422C1048.38 236.144 1051.24 233.486 1053.49 230.449C1055.98 227.159 1057.72 223.742 1058.72 220.199C1059.97 216.402 1060.59 213.238 1060.59 210.707H1064.33V255.127H911.008V251.33Z" fill="#F2F5F5"/>
<path d="M1253.31 123.007H1306.79V126.804H1304.92C1302.92 126.804 1301.18 127.563 1299.68 129.082C1298.19 130.347 1296.94 131.993 1295.94 134.017C1294.95 136.042 1294.07 138.194 1293.33 140.471C1292.83 142.749 1292.58 144.774 1292.58 146.546V248.293C1288.09 250.065 1282.98 251.583 1277.25 252.849C1271.51 254.114 1265.53 255.127 1259.3 255.886C1253.06 256.898 1246.71 257.658 1240.22 258.164C1233.74 258.67 1227.76 258.923 1222.27 258.923C1199.84 258.923 1180.27 255.127 1163.56 247.534C1146.86 239.941 1133.02 230.07 1122.05 217.921C1111.08 205.519 1102.86 191.598 1097.37 176.159C1092.14 160.72 1089.52 145.154 1089.52 129.462C1089.52 113.769 1092.14 98.2035 1097.37 82.7643C1102.86 67.3251 1111.08 53.531 1122.05 41.3821C1133.27 29.2333 1147.23 19.4888 1163.94 12.1489C1180.89 4.55584 1200.96 0.759318 1224.14 0.759318C1232.87 0.759318 1240.97 1.51862 1248.45 3.03723C1255.93 4.55583 1262.54 5.94789 1268.27 7.2134C1271.51 7.97271 1274.25 8.73202 1276.5 9.49133C1278.99 9.99753 1281.11 10.2506 1282.85 10.2506H1286.22V50.4938H1282.48C1280.98 42.6476 1277.99 36.3201 1273.51 31.5112C1269.27 26.7022 1264.28 23.0323 1258.55 20.5013C1252.81 17.9702 1246.71 16.3251 1240.22 15.5658C1233.99 14.5534 1228.13 14.0471 1222.65 14.0471C1203.95 14.0471 1187.74 17.464 1174.03 24.2978C1160.32 30.8784 1149.1 39.4839 1140.38 50.1142C1131.65 60.7444 1125.17 72.7668 1120.93 86.1812C1116.69 99.3425 1114.57 112.504 1114.57 125.665C1114.57 140.345 1117.32 154.898 1122.8 169.325C1128.28 183.499 1136.01 196.28 1145.99 207.67C1155.96 218.807 1167.92 227.918 1181.89 235.005C1196.1 241.839 1211.8 245.256 1229 245.256C1233.74 245.256 1239.6 244.749 1246.58 243.737C1253.56 242.472 1260.54 239.814 1267.52 235.764V146.546C1267.52 144.774 1267.27 142.749 1266.77 140.471C1266.28 138.194 1265.4 136.042 1264.16 134.017C1263.16 131.993 1261.91 130.347 1260.42 129.082C1258.92 127.563 1257.18 126.804 1255.18 126.804H1253.31V123.007Z" fill="#F2F5F5"/>
<path d="M1339.78 4.55584H1393.26V8.35236H1391.39C1389.64 8.35236 1388.02 9.11167 1386.53 10.6303C1385.03 11.8958 1383.78 13.5409 1382.79 15.5658C1381.79 17.3375 1380.92 19.4889 1380.17 22.0199C1379.67 24.2978 1379.42 26.3226 1379.42 28.0943V230.449C1379.42 232.474 1379.67 234.752 1380.17 237.283C1380.67 239.561 1381.42 241.712 1382.41 243.737C1383.66 245.762 1384.91 247.534 1386.15 249.052C1387.65 250.571 1389.39 251.33 1391.39 251.33H1393.26V255.127H1339.78V251.33H1341.65C1343.65 251.33 1345.39 250.697 1346.89 249.432C1348.38 247.913 1349.63 246.141 1350.63 244.117C1351.87 241.839 1352.74 239.561 1353.24 237.283C1353.74 234.752 1353.99 232.474 1353.99 230.449V28.0943C1353.99 26.3226 1353.74 24.2978 1353.24 22.0199C1352.74 19.7419 1351.87 17.5906 1350.63 15.5658C1349.63 13.5409 1348.38 11.8958 1346.89 10.6303C1345.39 9.11167 1343.65 8.35236 1341.65 8.35236H1339.78V4.55584Z" fill="#F2F5F5"/>
<path d="M1493.54 129.462L1441.56 30.7519C1440.31 28.7271 1438.82 26.4491 1437.07 23.9181C1435.58 21.134 1433.96 18.603 1432.21 16.3251C1430.47 14.0472 1428.47 12.1489 1426.23 10.6303C1424.23 9.11167 1422.11 8.35236 1419.87 8.35236V4.55584H1472.97V8.35236C1471.48 8.35236 1469.73 9.36477 1467.74 11.3896C1465.99 13.4144 1465.12 15.9454 1465.12 18.9826C1465.12 20.7544 1465.62 22.5261 1466.61 24.2978L1508.87 104.025L1547.39 28.0943C1547.39 27.335 1547.76 26.5757 1548.51 25.8164C1549.01 24.5509 1549.51 23.2854 1550.01 22.0199C1550.76 20.5013 1551.13 19.1092 1551.13 17.8437C1551.13 13.7941 1549.76 11.263 1547.02 10.2506C1544.27 8.98512 1542.53 8.35236 1541.78 8.35236V4.55584H1583.29V8.35236C1579.05 8.35236 1574.94 10.7568 1570.95 15.5658C1567.21 20.1216 1564.22 24.6774 1561.97 29.2333L1516.35 117.692L1574.69 229.31C1575.94 231.588 1577.43 233.993 1579.18 236.524C1580.92 239.055 1582.79 241.459 1584.79 243.737C1586.78 246.015 1588.77 247.913 1590.77 249.432C1593.01 250.697 1595.26 251.33 1597.5 251.33V255.127H1544.4V251.33C1545.89 251.33 1547.39 250.318 1548.89 248.293C1550.38 246.268 1551.13 243.864 1551.13 241.079C1551.13 239.308 1550.38 237.03 1548.89 234.246L1501.39 143.888L1454.65 234.246C1453.9 235.764 1453.15 237.536 1452.4 239.561C1451.91 241.586 1451.66 243.484 1451.66 245.256C1451.66 249.305 1453.53 251.33 1457.27 251.33V255.127H1416.5V251.33C1418.25 251.33 1420.24 250.824 1422.49 249.811C1424.73 248.546 1426.97 247.027 1429.22 245.256C1431.46 243.484 1433.58 241.459 1435.58 239.181C1437.57 236.903 1439.19 234.752 1440.44 232.727L1493.54 129.462Z" fill="#F2F5F5"/>
<path d="M134.669 435.538H135.567C136.404 435.538 137.182 435.234 137.9 434.626C138.618 433.897 139.216 433.047 139.695 432.075C140.293 430.982 140.712 429.888 140.952 428.795C141.191 427.58 141.311 426.487 141.311 425.515V375.947H83.8704V425.515C83.8704 426.487 83.9901 427.58 84.2294 428.795C84.4688 429.888 84.8278 430.921 85.3064 431.893C85.7851 432.865 86.3236 433.715 86.922 434.444C87.64 435.173 88.4776 435.538 89.435 435.538H90.3325V437.36H65.2024V435.538H66.0999C66.9376 435.538 67.7154 435.234 68.4334 434.626C69.1514 433.897 69.7498 433.047 70.2284 432.075C70.8268 430.982 71.2456 429.888 71.4849 428.795C71.7243 427.58 71.8439 426.487 71.8439 425.515V328.384C71.8439 327.534 71.7243 326.562 71.4849 325.469C71.2456 324.375 70.8866 323.343 70.4079 322.371C69.9293 321.399 69.3309 320.609 68.6129 320.002C67.8949 319.273 67.0573 318.908 66.0999 318.908H65.2024V317.086H90.3325V318.908H89.435C88.4776 318.908 87.64 319.273 86.922 320.002C86.2039 320.609 85.6056 321.399 85.1269 322.371C84.7679 323.343 84.4688 324.375 84.2294 325.469C83.9901 326.562 83.8704 327.534 83.8704 328.384V369.569H141.311V328.384C141.311 327.534 141.191 326.562 140.952 325.469C140.712 324.375 140.353 323.343 139.875 322.371C139.396 321.399 138.798 320.609 138.08 320.002C137.362 319.273 136.524 318.908 135.567 318.908H134.669V317.086H159.799V318.908H158.902C157.944 318.908 157.107 319.273 156.389 320.002C155.671 320.609 155.072 321.399 154.594 322.371C154.235 323.343 153.935 324.375 153.696 325.469C153.457 326.562 153.337 327.534 153.337 328.384V425.515C153.337 426.487 153.457 427.58 153.696 428.795C154.055 429.888 154.474 430.921 154.953 431.893C155.431 432.865 155.97 433.715 156.568 434.444C157.286 435.173 158.064 435.538 158.902 435.538H159.799V437.36H134.669V435.538Z" fill="#F2F5F5"/>
<path d="M184.583 400.549C185.061 404.801 186.079 408.871 187.634 412.758C189.19 416.525 191.224 419.866 193.737 422.781C196.37 425.697 199.541 428.066 203.251 429.888C206.96 431.589 211.268 432.44 216.175 432.44C218.807 432.44 221.56 432.075 224.432 431.346C227.423 430.496 230.176 429.342 232.689 427.884C235.202 426.426 237.416 424.664 239.33 422.599C241.365 420.412 242.741 417.982 243.459 415.31H245.074V428.977C244.356 428.977 243.519 429.22 242.561 429.706C241.724 430.192 240.706 430.799 239.51 431.528C237.116 432.986 233.885 434.566 229.817 436.266C225.748 437.846 220.363 438.636 213.662 438.636C208.277 438.636 203.131 437.846 198.225 436.266C193.438 434.687 189.19 432.257 185.48 428.977C181.771 425.697 178.779 421.506 176.505 416.403C174.351 411.301 173.274 405.226 173.274 398.18C173.274 393.685 173.992 389.129 175.428 384.512C176.984 379.896 179.258 375.765 182.249 372.12C185.361 368.354 189.31 365.317 194.096 363.009C198.883 360.7 204.627 359.546 211.328 359.546C217.312 359.546 222.517 360.579 226.945 362.644C231.492 364.71 235.202 367.565 238.074 371.209C241.065 374.854 243.279 379.167 244.715 384.148C246.151 389.129 246.869 394.596 246.869 400.549H184.583ZM210.61 365.56C206.422 365.56 202.772 366.41 199.661 368.111C196.669 369.812 194.096 371.999 191.942 374.672C189.788 377.344 188.113 380.382 186.916 383.783C185.72 387.185 184.942 390.587 184.583 393.988H235.74C235.621 390.465 234.962 387.003 233.766 383.601C232.689 380.199 231.133 377.162 229.099 374.489C227.064 371.817 224.492 369.691 221.38 368.111C218.269 366.41 214.679 365.56 210.61 365.56Z" fill="#F2F5F5"/>
<path d="M304.311 437.36V428.066L303.413 428.977C300.422 432.014 296.951 434.383 293.002 436.084C289.173 437.785 284.506 438.636 279.001 438.636C274.813 438.636 271.223 438.15 268.231 437.178C265.24 436.206 262.786 434.869 260.872 433.169C258.957 431.346 257.521 429.281 256.564 426.973C255.726 424.664 255.307 422.235 255.307 419.683C255.307 415.553 256.384 411.908 258.538 408.749C260.812 405.591 264.043 402.796 268.231 400.367C272.42 397.937 277.505 395.75 283.489 393.806C289.592 391.741 296.532 389.736 304.311 387.792C304.071 383.054 303.114 379.227 301.439 376.312C299.763 373.396 297.789 371.148 295.515 369.569C293.242 367.868 290.848 366.775 288.335 366.289C285.822 365.681 283.668 365.378 281.873 365.378C278.762 365.378 276.01 365.864 273.616 366.836C271.343 367.807 269.308 369.083 267.513 370.663C265.838 372.12 264.402 373.76 263.205 375.583C262.009 377.284 261.051 378.924 260.333 380.503H258.718V367.2C259.675 367.079 260.573 366.775 261.41 366.289C262.248 365.803 263.265 365.317 264.462 364.831C266.257 364.102 268.71 363.069 271.821 361.733C274.933 360.275 279.3 359.546 284.925 359.546C291.506 359.546 296.832 360.397 300.9 362.098C304.969 363.798 308.08 366.046 310.234 368.84C312.508 371.634 314.004 374.854 314.722 378.499C315.44 382.022 315.799 385.666 315.799 389.433V425.515C315.799 427.944 316.337 430.253 317.414 432.44C318.491 434.505 319.927 435.538 321.722 435.538V437.36H304.311ZM304.311 420.048V393.988L302.516 394.353C299.644 395.082 296.114 396.054 291.925 397.269C287.857 398.483 283.967 400.063 280.258 402.007C276.548 403.95 273.377 406.259 270.744 408.931C268.112 411.604 266.795 414.702 266.795 418.225C266.795 422.113 268.351 425.332 271.462 427.884C274.574 430.435 278.642 431.711 283.668 431.711C287.617 431.711 291.088 430.86 294.079 429.159C297.071 427.337 299.823 425.029 302.336 422.235L304.311 420.048Z" fill="#F2F5F5"/>
<path d="M339.678 437.36V435.538C340.635 435.538 341.473 435.173 342.191 434.444C342.909 433.715 343.507 432.865 343.986 431.893C344.584 430.921 345.003 429.888 345.242 428.795C345.482 427.58 345.601 426.487 345.601 425.515V332.211C345.601 330.146 345.302 328.202 344.704 326.38C344.106 324.557 342.311 323.586 339.319 323.464V321.642L357.448 315.993V425.515C357.448 426.487 357.568 427.58 357.807 428.795C358.047 429.888 358.406 430.921 358.884 431.893C359.483 432.865 360.081 433.715 360.679 434.444C361.397 435.173 362.235 435.538 363.192 435.538V437.36H339.678Z" fill="#F2F5F5"/>
<path d="M398.095 367.018V410.936C398.095 414.095 398.155 416.95 398.275 419.501C398.395 422.052 398.694 424.178 399.172 425.879C399.651 427.58 400.369 428.916 401.326 429.888C402.284 430.739 403.6 431.164 405.275 431.164C407.788 431.164 410.122 429.949 412.276 427.519C414.55 425.09 415.986 422.174 416.584 418.772H418.199V432.075C417.122 432.075 416.225 432.44 415.507 433.169C414.55 434.019 413.173 434.93 411.378 435.902C409.703 436.874 407.13 437.36 403.66 437.36C399.352 437.36 396.001 436.509 393.608 434.809C391.215 433.108 389.479 430.86 388.402 428.066C387.325 425.272 386.667 422.174 386.428 418.772C386.308 415.37 386.248 411.908 386.248 408.385V367.018H376.196V360.822H386.248V344.603C386.248 342.538 385.949 340.655 385.351 338.954C384.872 337.132 383.137 336.16 380.145 336.038V334.216L398.095 328.384V360.822H418.199V367.018H398.095Z" fill="#F2F5F5"/>
<path d="M503.849 425.515C503.849 426.487 503.969 427.58 504.208 428.795C504.447 429.888 504.806 430.921 505.285 431.893C505.883 432.865 506.482 433.715 507.08 434.444C507.798 435.173 508.636 435.538 509.593 435.538V437.36H486.438V435.538C487.275 435.538 488.053 435.173 488.771 434.444C489.489 433.715 490.087 432.865 490.566 431.893C491.164 430.921 491.583 429.888 491.823 428.795C492.062 427.58 492.182 426.487 492.182 425.515V391.619C492.182 387.246 491.583 383.419 490.387 380.139C489.19 376.858 487.574 374.125 485.54 371.938C483.506 369.751 481.172 368.172 478.54 367.2C476.027 366.107 473.454 365.56 470.821 365.56C468.188 365.56 465.556 366.107 462.923 367.2C460.41 368.172 458.136 369.569 456.102 371.391C454.187 373.214 452.572 375.461 451.256 378.134C450.059 380.685 449.461 383.54 449.461 386.699V425.515C449.461 426.487 449.58 427.58 449.82 428.795C450.059 429.888 450.418 430.921 450.897 431.893C451.495 432.865 452.093 433.715 452.692 434.444C453.41 435.173 454.247 435.538 455.205 435.538V437.36H431.87V435.538C432.707 435.538 433.485 435.173 434.203 434.444C434.921 433.715 435.519 432.865 435.998 431.893C436.596 430.921 437.015 429.888 437.255 428.795C437.494 427.58 437.614 426.487 437.614 425.515V332.394C437.614 330.328 437.314 328.384 436.716 326.562C436.118 324.74 434.383 323.768 431.511 323.646V321.824L449.461 316.175V368.84C450.298 367.868 451.375 366.836 452.692 365.742C454.008 364.527 455.564 363.434 457.359 362.462C459.273 361.369 461.427 360.518 463.821 359.911C466.334 359.182 469.265 358.817 472.616 358.817C478.24 358.817 483.027 359.789 486.976 361.733C490.925 363.677 494.156 366.228 496.669 369.387C499.182 372.424 500.977 375.826 502.054 379.592C503.251 383.237 503.849 386.821 503.849 390.344V425.515Z" fill="#F2F5F5"/>
<path d="M593.46 430.799C592.503 430.799 591.606 431.042 590.768 431.528C589.93 431.893 588.973 432.379 587.896 432.986C585.862 434.201 583.289 435.477 580.177 436.813C577.066 438.028 572.997 438.636 567.971 438.636C561.868 438.636 556.184 437.664 550.919 435.72C545.773 433.654 541.286 430.86 537.456 427.337C533.747 423.692 530.815 419.501 528.661 414.763C526.627 409.903 525.609 404.679 525.609 399.091C525.609 393.867 526.507 388.886 528.302 384.148C530.217 379.41 532.909 375.218 536.379 371.574C539.85 367.929 544.098 365.013 549.124 362.827C554.27 360.64 560.073 359.546 566.535 359.546C570.963 359.546 574.553 360.093 577.305 361.186C580.058 362.158 582.391 363.13 584.306 364.102C585.383 364.71 586.4 365.195 587.357 365.56C588.434 365.924 589.511 366.107 590.588 366.107V379.956H588.793C588.195 377.648 587.118 375.644 585.562 373.943C584.007 372.12 582.212 370.602 580.177 369.387C578.143 368.172 575.929 367.261 573.536 366.653C571.143 366.046 568.809 365.742 566.535 365.742C561.629 365.742 557.321 366.653 553.611 368.476C549.902 370.177 546.85 372.485 544.457 375.401C542.064 378.195 540.268 381.414 539.072 385.059C537.875 388.704 537.277 392.47 537.277 396.357C537.277 400.852 537.995 405.287 539.431 409.66C540.867 413.913 542.901 417.739 545.534 421.141C548.286 424.543 551.577 427.276 555.406 429.342C559.236 431.407 563.544 432.44 568.33 432.44C571.681 432.44 574.733 431.954 577.485 430.982C580.357 430.01 582.75 428.734 584.665 427.155C586.699 425.576 588.315 423.875 589.511 422.052C590.708 420.108 591.426 418.286 591.665 416.585H593.46V430.799Z" fill="#F2F5F5"/>
<path d="M652.794 437.36V428.066L651.896 428.977C648.905 432.014 645.434 434.383 641.485 436.084C637.656 437.785 632.989 438.636 627.484 438.636C623.296 438.636 619.706 438.15 616.714 437.178C613.722 436.206 611.269 434.869 609.355 433.169C607.44 431.346 606.004 429.281 605.047 426.973C604.209 424.664 603.79 422.235 603.79 419.683C603.79 415.553 604.867 411.908 607.021 408.749C609.295 405.591 612.526 402.796 616.714 400.367C620.902 397.937 625.988 395.75 631.972 393.806C638.075 391.741 645.015 389.736 652.794 387.792C652.554 383.054 651.597 379.227 649.922 376.312C648.246 373.396 646.272 371.148 643.998 369.569C641.724 367.868 639.331 366.775 636.818 366.289C634.305 365.681 632.151 365.378 630.356 365.378C627.245 365.378 624.492 365.864 622.099 366.836C619.826 367.807 617.791 369.083 615.996 370.663C614.321 372.12 612.885 373.76 611.688 375.583C610.491 377.284 609.534 378.924 608.816 380.503H607.201V367.2C608.158 367.079 609.055 366.775 609.893 366.289C610.731 365.803 611.748 365.317 612.945 364.831C614.74 364.102 617.193 363.069 620.304 361.733C623.415 360.275 627.783 359.546 633.408 359.546C639.989 359.546 645.315 360.397 649.383 362.098C653.452 363.798 656.563 366.046 658.717 368.84C660.991 371.634 662.487 374.854 663.205 378.499C663.923 382.022 664.282 385.666 664.282 389.433V425.515C664.282 427.944 664.82 430.253 665.897 432.44C666.974 434.505 668.41 435.538 670.205 435.538V437.36H652.794ZM652.794 420.048V393.988L650.999 394.353C648.127 395.082 644.596 396.054 640.408 397.269C636.339 398.483 632.45 400.063 628.741 402.007C625.031 403.95 621.86 406.259 619.227 408.931C616.594 411.604 615.278 414.702 615.278 418.225C615.278 422.113 616.834 425.332 619.945 427.884C623.056 430.435 627.125 431.711 632.151 431.711C636.1 431.711 639.57 430.86 642.562 429.159C645.554 427.337 648.306 425.029 650.819 422.235L652.794 420.048Z" fill="#F2F5F5"/>
<path d="M731.241 374.125C729.805 371.695 728.309 370.177 726.753 369.569C725.198 368.962 723.403 368.658 721.368 368.658C720.052 368.658 718.616 368.962 717.06 369.569C715.624 370.177 714.188 370.966 712.752 371.938C711.316 372.91 709.88 374.003 708.444 375.218C707.128 376.312 705.991 377.344 705.034 378.316V425.697C705.034 426.669 705.154 427.702 705.393 428.795C705.632 429.888 705.991 430.982 706.47 432.075C707.068 433.047 707.667 433.897 708.265 434.626C708.983 435.234 709.821 435.538 710.778 435.538V437.36H687.443V435.538C688.281 435.538 689.058 435.234 689.776 434.626C690.494 433.897 691.093 433.047 691.571 432.075C692.17 430.982 692.589 429.888 692.828 428.795C693.067 427.702 693.187 426.669 693.187 425.697V374.854C693.187 373.153 692.648 371.452 691.571 369.751C690.494 368.051 688.939 366.957 686.904 366.471V365.013L705.034 359.546V370.48C706.111 369.144 707.248 367.868 708.444 366.653C709.641 365.317 710.957 364.163 712.393 363.191C713.949 362.098 715.624 361.247 717.419 360.64C719.214 359.911 721.309 359.546 723.702 359.546C725.377 359.546 727.531 359.911 730.164 360.64C732.797 361.369 734.951 362.158 736.626 363.009L731.241 374.125Z" fill="#F2F5F5"/>
<path d="M757.792 400.549C758.27 404.801 759.287 408.871 760.843 412.758C762.399 416.525 764.433 419.866 766.946 422.781C769.579 425.697 772.75 428.066 776.46 429.888C780.169 431.589 784.477 432.44 789.384 432.44C792.016 432.44 794.769 432.075 797.641 431.346C800.632 430.496 803.385 429.342 805.898 427.884C808.411 426.426 810.624 424.664 812.539 422.599C814.573 420.412 815.95 417.982 816.668 415.31H818.283V428.977C817.565 428.977 816.727 429.22 815.77 429.706C814.932 430.192 813.915 430.799 812.719 431.528C810.325 432.986 807.094 434.566 803.026 436.266C798.957 437.846 793.572 438.636 786.871 438.636C781.486 438.636 776.34 437.846 771.434 436.266C766.647 434.687 762.399 432.257 758.689 428.977C754.979 425.697 751.988 421.506 749.714 416.403C747.56 411.301 746.483 405.226 746.483 398.18C746.483 393.685 747.201 389.129 748.637 384.512C750.193 379.896 752.466 375.765 755.458 372.12C758.569 368.354 762.518 365.317 767.305 363.009C772.092 360.7 777.836 359.546 784.537 359.546C790.52 359.546 795.726 360.579 800.154 362.644C804.701 364.71 808.411 367.565 811.283 371.209C814.274 374.854 816.488 379.167 817.924 384.148C819.36 389.129 820.078 394.596 820.078 400.549H757.792ZM783.819 365.56C779.631 365.56 775.981 366.41 772.87 368.111C769.878 369.812 767.305 371.999 765.151 374.672C762.997 377.344 761.322 380.382 760.125 383.783C758.928 387.185 758.151 390.587 757.792 393.988H808.949C808.829 390.465 808.171 387.003 806.975 383.601C805.898 380.199 804.342 377.162 802.308 374.489C800.273 371.817 797.7 369.691 794.589 368.111C791.478 366.41 787.888 365.56 783.819 365.56Z" fill="#F2F5F5"/>
<path d="M940.005 416.585C940.005 419.744 939.227 422.66 937.672 425.332C936.116 428.005 933.962 430.374 931.21 432.44C928.577 434.383 925.466 435.963 921.876 437.178C918.286 438.271 914.397 438.818 910.208 438.818C905.063 438.818 900.874 438.15 897.643 436.813C894.412 435.355 891.66 433.897 889.386 432.44C887.831 431.468 886.395 430.678 885.078 430.071C883.762 429.342 882.326 428.977 880.77 428.977V415.127H882.565C882.924 416.828 883.941 418.711 885.617 420.777C887.412 422.72 889.506 424.543 891.899 426.244C894.412 427.944 897.105 429.402 899.977 430.617C902.968 431.711 905.96 432.257 908.952 432.257C911.106 432.257 913.32 432.014 915.593 431.528C917.867 431.042 919.901 430.253 921.696 429.159C923.611 428.066 925.167 426.73 926.363 425.15C927.68 423.449 928.338 421.445 928.338 419.137C928.338 416.828 927.68 414.824 926.363 413.123C925.047 411.422 923.372 409.964 921.337 408.749C919.303 407.413 916.969 406.259 914.337 405.287C911.704 404.315 909.071 403.404 906.439 402.553C903.327 401.581 900.156 400.488 896.925 399.273C893.814 398.058 891.002 396.661 888.489 395.082C885.976 393.381 883.941 391.376 882.386 389.068C880.83 386.638 880.052 383.783 880.052 380.503C880.052 377.709 880.531 375.036 881.488 372.485C882.565 369.934 884.241 367.747 886.514 365.924C888.908 363.981 891.959 362.462 895.669 361.369C899.378 360.154 903.866 359.546 909.131 359.546C913.798 359.546 917.388 359.971 919.901 360.822C922.534 361.551 924.688 362.341 926.363 363.191C927.44 363.798 928.517 364.284 929.594 364.649C930.671 364.892 931.868 365.013 933.184 365.013V377.77H931.748C929.594 373.76 926.303 370.723 921.876 368.658C917.448 366.593 912.901 365.56 908.234 365.56C905.242 365.56 902.669 365.985 900.515 366.836C898.361 367.565 896.566 368.536 895.13 369.751C893.814 370.845 892.797 372.12 892.079 373.578C891.48 375.036 891.181 376.494 891.181 377.952C891.181 380.017 891.72 381.779 892.797 383.237C893.993 384.694 895.549 385.97 897.464 387.064C899.498 388.157 901.712 389.19 904.105 390.161C906.618 391.133 909.251 392.045 912.003 392.895C915.354 393.988 918.705 395.203 922.055 396.54C925.406 397.755 928.398 399.273 931.03 401.095C933.663 402.918 935.817 405.105 937.492 407.656C939.168 410.086 940.005 413.062 940.005 416.585Z" fill="#F2F5F5"/>
<path d="M993.161 438.636C987.178 438.636 981.793 437.664 977.006 435.72C972.22 433.654 968.091 430.921 964.621 427.519C961.27 423.996 958.637 419.865 956.723 415.127C954.928 410.389 954.03 405.226 954.03 399.638C954.03 393.685 955.047 388.278 957.082 383.419C959.116 378.438 961.928 374.186 965.518 370.663C969.108 367.139 973.356 364.406 978.263 362.462C983.169 360.518 988.494 359.546 994.238 359.546C999.982 359.546 1005.25 360.518 1010.03 362.462C1014.82 364.284 1018.95 366.896 1022.42 370.298C1025.89 373.7 1028.58 377.77 1030.5 382.508C1032.41 387.124 1033.37 392.227 1033.37 397.815C1033.37 403.039 1032.47 408.142 1030.68 413.123C1029 417.982 1026.43 422.295 1022.96 426.061C1019.61 429.828 1015.42 432.865 1010.39 435.173C1005.49 437.481 999.743 438.636 993.161 438.636ZM992.084 365.56C987.776 365.803 983.947 366.896 980.596 368.84C977.365 370.663 974.613 373.092 972.339 376.13C970.185 379.045 968.51 382.386 967.313 386.152C966.236 389.918 965.698 393.745 965.698 397.633C965.698 402.128 966.356 406.502 967.672 410.754C969.108 414.884 971.083 418.59 973.596 421.87C976.228 425.15 979.34 427.762 982.93 429.706C986.52 431.65 990.529 432.622 994.956 432.622C999.384 432.622 1003.27 431.65 1006.62 429.706C1010.09 427.762 1012.97 425.272 1015.24 422.235C1017.51 419.076 1019.19 415.553 1020.27 411.665C1021.46 407.777 1022.06 403.89 1022.06 400.002C1022.06 395.993 1021.46 391.984 1020.27 387.975C1019.07 383.844 1017.21 380.139 1014.7 376.858C1012.19 373.457 1009.02 370.723 1005.19 368.658C1001.48 366.593 997.11 365.56 992.084 365.56Z" fill="#F2F5F5"/>
<path d="M1050.14 437.36V435.538C1051.1 435.538 1051.94 435.173 1052.65 434.444C1053.37 433.715 1053.97 432.865 1054.45 431.893C1055.05 430.921 1055.47 429.888 1055.71 428.795C1055.95 427.58 1056.06 426.487 1056.06 425.515V332.211C1056.06 330.146 1055.77 328.202 1055.17 326.38C1054.57 324.557 1052.77 323.586 1049.78 323.464V321.642L1067.91 315.993V425.515C1067.91 426.487 1068.03 427.58 1068.27 428.795C1068.51 429.888 1068.87 430.921 1069.35 431.893C1069.95 432.865 1070.54 433.715 1071.14 434.444C1071.86 435.173 1072.7 435.538 1073.66 435.538V437.36H1050.14Z" fill="#F2F5F5"/>
<path d="M1162.05 425.515C1162.05 426.365 1162.17 427.398 1162.41 428.613C1162.65 429.706 1162.95 430.799 1163.31 431.893C1163.79 432.865 1164.38 433.715 1165.1 434.444C1165.82 435.173 1166.66 435.538 1167.61 435.538V437.36H1150.2V427.337C1148.41 430.01 1145.78 432.622 1142.3 435.173C1138.83 437.724 1134.35 439 1128.84 439C1121.9 439 1116.4 437.785 1112.33 435.355C1108.26 432.926 1105.15 429.828 1102.99 426.061C1100.84 422.295 1099.46 418.225 1098.87 413.852C1098.27 409.357 1097.97 405.165 1097.97 401.278V375.218C1097.97 374.125 1097.91 373.092 1097.79 372.12C1097.79 371.027 1097.55 370.055 1097.07 369.205C1096.71 368.354 1096.11 367.686 1095.28 367.2C1094.44 366.593 1093.24 366.289 1091.69 366.289V364.649L1109.82 358.817V405.287C1109.82 414.52 1111.79 421.323 1115.74 425.697C1119.69 430.071 1124.53 432.257 1130.28 432.257C1133.39 432.257 1136.14 431.589 1138.54 430.253C1141.05 428.795 1143.14 427.094 1144.82 425.15C1146.61 423.206 1147.93 421.202 1148.77 419.137C1149.72 417.071 1150.2 415.37 1150.2 414.034V375.218C1150.2 374.125 1150.14 373.092 1150.02 372.12C1150.02 371.027 1149.78 370.055 1149.31 369.205C1148.95 368.354 1148.35 367.686 1147.51 367.2C1146.67 366.593 1145.48 366.289 1143.92 366.289V364.649L1162.05 358.817V425.515Z" fill="#F2F5F5"/>
<path d="M1202.69 367.018V410.936C1202.69 414.095 1202.75 416.95 1202.87 419.501C1202.99 422.052 1203.29 424.178 1203.77 425.879C1204.25 427.58 1204.96 428.916 1205.92 429.888C1206.88 430.739 1208.2 431.164 1209.87 431.164C1212.38 431.164 1214.72 429.949 1216.87 427.519C1219.15 425.09 1220.58 422.174 1221.18 418.772H1222.8V432.075C1221.72 432.075 1220.82 432.44 1220.1 433.169C1219.15 434.019 1217.77 434.93 1215.97 435.902C1214.3 436.874 1211.73 437.36 1208.26 437.36C1203.95 437.36 1200.6 436.509 1198.2 434.809C1195.81 433.108 1194.08 430.86 1193 428.066C1191.92 425.272 1191.26 422.174 1191.02 418.772C1190.9 415.37 1190.84 411.908 1190.84 408.385V367.018H1180.79V360.822H1190.84V344.603C1190.84 342.538 1190.55 340.655 1189.95 338.954C1189.47 337.132 1187.73 336.16 1184.74 336.038V334.216L1202.69 328.384V360.822H1222.8V367.018H1202.69Z" fill="#F2F5F5"/>
<path d="M1238.8 437.36V435.538C1239.76 435.538 1240.59 435.173 1241.31 434.444C1242.03 433.715 1242.63 432.865 1243.11 431.893C1243.59 430.921 1243.94 429.888 1244.18 428.795C1244.42 427.58 1244.54 426.487 1244.54 425.515V375.036C1244.54 372.971 1244.24 371.027 1243.65 369.205C1243.05 367.261 1241.31 366.228 1238.44 366.107V364.467L1256.39 358.635V425.515C1256.39 426.487 1256.51 427.58 1256.75 428.795C1256.99 429.888 1257.35 430.921 1257.83 431.893C1258.3 432.865 1258.9 433.715 1259.62 434.444C1260.34 435.173 1261.18 435.538 1262.13 435.538V437.36H1238.8ZM1239.7 341.141C1239.7 338.711 1240.47 336.646 1242.03 334.945C1243.71 333.244 1245.74 332.394 1248.13 332.394C1250.53 332.394 1252.56 333.244 1254.24 334.945C1255.91 336.646 1256.75 338.711 1256.75 341.141C1256.75 343.57 1255.91 345.575 1254.24 347.154C1252.56 348.734 1250.53 349.523 1248.13 349.523C1245.74 349.523 1243.71 348.734 1242.03 347.154C1240.47 345.575 1239.7 343.57 1239.7 341.141Z" fill="#F2F5F5"/>
<path d="M1319.03 438.636C1313.05 438.636 1307.66 437.664 1302.88 435.72C1298.09 433.654 1293.96 430.921 1290.49 427.519C1287.14 423.996 1284.51 419.865 1282.59 415.127C1280.8 410.389 1279.9 405.226 1279.9 399.638C1279.9 393.685 1280.92 388.278 1282.95 383.419C1284.99 378.438 1287.8 374.186 1291.39 370.663C1294.98 367.139 1299.23 364.406 1304.13 362.462C1309.04 360.518 1314.36 359.546 1320.11 359.546C1325.85 359.546 1331.12 360.518 1335.9 362.462C1340.69 364.284 1344.82 366.896 1348.29 370.298C1351.76 373.7 1354.45 377.77 1356.37 382.508C1358.28 387.124 1359.24 392.227 1359.24 397.815C1359.24 403.039 1358.34 408.142 1356.55 413.123C1354.87 417.982 1352.3 422.295 1348.83 426.061C1345.48 429.828 1341.29 432.865 1336.26 435.173C1331.36 437.481 1325.61 438.636 1319.03 438.636ZM1317.95 365.56C1313.65 365.803 1309.82 366.896 1306.47 368.84C1303.24 370.663 1300.48 373.092 1298.21 376.13C1296.06 379.045 1294.38 382.386 1293.18 386.152C1292.11 389.918 1291.57 393.745 1291.57 397.633C1291.57 402.128 1292.23 406.502 1293.54 410.754C1294.98 414.884 1296.95 418.59 1299.47 421.87C1302.1 425.15 1305.21 427.762 1308.8 429.706C1312.39 431.65 1316.4 432.622 1320.83 432.622C1325.25 432.622 1329.14 431.65 1332.49 429.706C1335.96 427.762 1338.84 425.272 1341.11 422.235C1343.38 419.076 1345.06 415.553 1346.14 411.665C1347.33 407.777 1347.93 403.89 1347.93 400.002C1347.93 395.993 1347.33 391.984 1346.14 387.975C1344.94 383.844 1343.08 380.139 1340.57 376.858C1338.06 373.457 1334.89 370.723 1331.06 368.658C1327.35 366.593 1322.98 365.56 1317.95 365.56Z" fill="#F2F5F5"/>
<path d="M1447.45 425.515C1447.45 426.487 1447.57 427.58 1447.81 428.795C1448.05 429.888 1448.41 430.921 1448.89 431.893C1449.49 432.865 1450.09 433.715 1450.68 434.444C1451.4 435.173 1452.24 435.538 1453.2 435.538V437.36H1430.04V435.538C1430.88 435.538 1431.66 435.173 1432.37 434.444C1433.09 433.715 1433.69 432.865 1434.17 431.893C1434.77 430.921 1435.19 429.888 1435.43 428.795C1435.67 427.58 1435.78 426.487 1435.78 425.515V391.619C1435.78 387.246 1435.19 383.419 1433.99 380.139C1432.79 376.858 1431.18 374.125 1429.14 371.938C1427.11 369.751 1424.78 368.172 1422.14 367.2C1419.63 366.107 1417.06 365.56 1414.42 365.56C1411.79 365.56 1409.16 366.107 1406.53 367.2C1404.01 368.293 1401.74 369.751 1399.71 371.574C1397.79 373.275 1396.18 375.34 1394.86 377.77C1393.66 380.078 1393.06 382.508 1393.06 385.059V425.515C1393.06 426.487 1393.18 427.58 1393.42 428.795C1393.66 429.888 1394.02 430.921 1394.5 431.893C1395.1 432.865 1395.7 433.715 1396.29 434.444C1397.01 435.173 1397.85 435.538 1398.81 435.538V437.36H1375.47V435.538C1376.31 435.538 1377.09 435.173 1377.81 434.444C1378.52 433.715 1379.12 432.865 1379.6 431.893C1380.2 430.921 1380.62 429.888 1380.86 428.795C1381.1 427.58 1381.22 426.487 1381.22 425.515V375.218C1381.22 373.153 1380.92 371.209 1380.32 369.387C1379.72 367.443 1377.99 366.41 1375.11 366.289V364.649L1393.06 358.817V368.84C1393.9 367.868 1394.98 366.836 1396.29 365.742C1397.61 364.527 1399.17 363.434 1400.96 362.462C1402.88 361.369 1405.03 360.518 1407.42 359.911C1409.94 359.182 1412.87 358.817 1416.22 358.817C1421.84 358.817 1426.63 359.789 1430.58 361.733C1434.53 363.677 1437.76 366.228 1440.27 369.387C1442.79 372.424 1444.58 375.826 1445.66 379.592C1446.85 383.237 1447.45 386.821 1447.45 390.344V425.515Z" fill="#F2F5F5"/>
<path d="M1529.17 416.585C1529.17 419.744 1528.39 422.66 1526.83 425.332C1525.28 428.005 1523.12 430.374 1520.37 432.44C1517.74 434.383 1514.63 435.963 1511.04 437.178C1507.45 438.271 1503.56 438.818 1499.37 438.818C1494.22 438.818 1490.03 438.15 1486.8 436.813C1483.57 435.355 1480.82 433.897 1478.55 432.44C1476.99 431.468 1475.55 430.678 1474.24 430.071C1472.92 429.342 1471.49 428.977 1469.93 428.977V415.127H1471.73C1472.08 416.828 1473.1 418.711 1474.78 420.777C1476.57 422.72 1478.67 424.543 1481.06 426.244C1483.57 427.944 1486.27 429.402 1489.14 430.617C1492.13 431.711 1495.12 432.257 1498.11 432.257C1500.27 432.257 1502.48 432.014 1504.75 431.528C1507.03 431.042 1509.06 430.253 1510.86 429.159C1512.77 428.066 1514.33 426.73 1515.52 425.15C1516.84 423.449 1517.5 421.445 1517.5 419.137C1517.5 416.828 1516.84 414.824 1515.52 413.123C1514.21 411.422 1512.53 409.964 1510.5 408.749C1508.46 407.413 1506.13 406.259 1503.5 405.287C1500.86 404.315 1498.23 403.404 1495.6 402.553C1492.49 401.581 1489.32 400.488 1486.09 399.273C1482.97 398.058 1480.16 396.661 1477.65 395.082C1475.14 393.381 1473.1 391.376 1471.55 389.068C1469.99 386.638 1469.21 383.783 1469.21 380.503C1469.21 377.709 1469.69 375.036 1470.65 372.485C1471.73 369.934 1473.4 367.747 1475.67 365.924C1478.07 363.981 1481.12 362.462 1484.83 361.369C1488.54 360.154 1493.03 359.546 1498.29 359.546C1502.96 359.546 1506.55 359.971 1509.06 360.822C1511.69 361.551 1513.85 362.341 1515.52 363.191C1516.6 363.798 1517.68 364.284 1518.75 364.649C1519.83 364.892 1521.03 365.013 1522.34 365.013V377.77H1520.91C1518.75 373.76 1515.46 370.723 1511.04 368.658C1506.61 366.593 1502.06 365.56 1497.39 365.56C1494.4 365.56 1491.83 365.985 1489.68 366.836C1487.52 367.565 1485.73 368.536 1484.29 369.751C1482.97 370.845 1481.96 372.12 1481.24 373.578C1480.64 375.036 1480.34 376.494 1480.34 377.952C1480.34 380.017 1480.88 381.779 1481.96 383.237C1483.15 384.694 1484.71 385.97 1486.62 387.064C1488.66 388.157 1490.87 389.19 1493.27 390.161C1495.78 391.133 1498.41 392.045 1501.16 392.895C1504.51 393.988 1507.86 395.203 1511.22 396.54C1514.57 397.755 1517.56 399.273 1520.19 401.095C1522.82 402.918 1524.98 405.105 1526.65 407.656C1528.33 410.086 1529.17 413.062 1529.17 416.585Z" fill="#F2F5F5"/>
</g>
<defs>
<clipPath id="clip0_2109_330">
<rect width="1597" height="209" fill="white" transform="translate(0.5)"/>
</clipPath>
</defs>
</svg>
