<svg width="61" height="60" viewBox="0 0 61 60" fill="none" xmlns="http://www.w3.org/2000/svg">
<g clip-path="url(#clip0_386_324)">
<mask id="mask0_386_324" style="mask-type:luminance" maskUnits="userSpaceOnUse" x="0" y="0" width="61" height="60">
<path d="M60.5 0H0.5V60H60.5V0Z" fill="white"/>
</mask>
<g mask="url(#mask0_386_324)">
<path fill-rule="evenodd" clip-rule="evenodd" d="M37.9697 1.47514L32.24 25.7994L45.3881 4.548C45.7955 3.88983 46.7099 3.78357 47.2571 4.33083L56.1692 13.2428C56.7164 13.7901 56.6102 14.7046 55.952 15.1118L34.7006 28.2601L59.0249 22.5303C59.7782 22.3528 60.5 22.9244 60.5 23.6984V36.3018C60.5 37.0758 59.7782 37.6473 59.0249 37.4697L34.7006 31.74L55.952 44.8884C56.6102 45.2955 56.7164 46.2099 56.1692 46.7574L47.2571 55.6692C46.7099 56.2164 45.7955 56.1102 45.3881 55.452L32.24 34.2006L37.9697 58.5249C38.1473 59.2782 37.5755 60 36.8018 60H24.1983C23.4244 60 22.8528 59.2782 23.0303 58.5249L28.7601 34.2006L15.6118 55.452C15.2046 56.1102 14.29 56.2164 13.7428 55.6692L4.83083 46.7571C4.28357 46.2099 4.38983 45.2955 5.048 44.8881L26.2992 31.74L1.97514 37.4697C1.22182 37.6473 0.5 37.0758 0.5 36.3018V23.6983C0.500001 22.9244 1.22181 22.3528 1.97514 22.5303L26.2994 28.2601L5.048 15.1118C4.38983 14.7046 4.28357 13.7901 4.83083 13.2428L13.7428 4.33086C14.29 3.7836 15.2046 3.88986 15.6118 4.54803L28.7601 25.7995L23.0303 1.47514C22.8528 0.721818 23.4244 1.16948e-06 24.1983 1.10182e-06L36.8018 0C37.5758 0 38.1473 0.721815 37.9697 1.47514ZM30.5 33.4287C32.3936 33.4287 33.9287 31.8936 33.9287 30C33.9287 28.1065 32.3936 26.5714 30.5 26.5714C28.6065 26.5714 27.0714 28.1065 27.0714 30C27.0714 31.8936 28.6065 33.4287 30.5 33.4287Z" fill="#AE8B58"/>
</g>
</g>
<defs>
<clipPath id="clip0_386_324">
<rect width="60" height="60" fill="white" transform="translate(0.5)"/>
</clipPath>
</defs>
</svg>
