<svg width="24" height="24" viewBox="0 0 24 24" fill="none" xmlns="http://www.w3.org/2000/svg">
<g clip-path="url(#clip0_416_392)">
<path d="M3.49097 16.2782C3.49097 18.9285 5.73846 21.0782 8.50915 21.0782H15.491C18.2617 21.0782 20.5091 18.9285 20.5091 16.2782V9.59999C20.5091 6.94976 18.2617 4.79999 15.491 4.79999H8.50915C5.73846 4.79999 3.49097 6.94976 3.49097 9.59999V16.2782ZM16.5819 7.72173C17.193 7.72173 17.6728 8.18069 17.6728 8.76521C17.6728 9.34972 17.193 9.80868 16.5819 9.80868C15.9708 9.80868 15.491 9.34972 15.491 8.76521C15.491 8.18069 15.9708 7.72173 16.5819 7.72173ZM12.0001 8.9739C14.291 8.9739 16.1455 10.7478 16.1455 12.9391C16.1455 15.1304 14.291 16.9043 12.0001 16.9043C9.70915 16.9043 7.8546 15.1304 7.8546 12.9391C7.8546 10.7478 9.70915 8.9739 12.0001 8.9739Z" fill="white"/>
<path d="M14.8363 12.9391C14.8363 14.4375 13.5664 15.6522 11.9999 15.6522C10.4335 15.6522 9.16357 14.4375 9.16357 12.9391C9.16357 11.4407 10.4335 10.2261 11.9999 10.2261C13.5664 10.2261 14.8363 11.4407 14.8363 12.9391Z" fill="white"/>
</g>
<defs>
<clipPath id="clip0_416_392">
<rect width="24" height="24" fill="white"/>
</clipPath>
</defs>
</svg>
