<svg width="24" height="24" viewBox="0 0 24 24" fill="none" xmlns="http://www.w3.org/2000/svg">
<path d="M4.37474 7.74909C5.68628 7.74909 6.74949 6.68597 6.74949 5.37454C6.74949 4.06312 5.68628 3 4.37474 3C3.06321 3 2 4.06312 2 5.37454C2 6.68597 3.06321 7.74909 4.37474 7.74909Z" fill="white"/>
<path d="M6.3537 9.33578H2.39579C2.17731 9.33578 2 9.51308 2 9.73154V21.6043C2 21.8227 2.17731 22 2.39579 22H6.3537C6.57217 22 6.74949 21.8227 6.74949 21.6043V9.73154C6.74949 9.51308 6.57217 9.33578 6.3537 9.33578Z" fill="white"/>
<path d="M18.1482 8.67803C16.4566 8.09864 14.3407 8.60759 13.0718 9.5202C13.0282 9.35003 12.8731 9.22338 12.6887 9.22338H8.73075C8.51228 9.22338 8.33496 9.40068 8.33496 9.61914V21.4919C8.33496 21.7103 8.51228 21.8876 8.73075 21.8876H12.6887C12.9071 21.8876 13.0845 21.7103 13.0845 21.4919V12.9593C13.724 12.4084 14.5481 12.2327 15.2225 12.5192C15.8764 12.7955 16.2508 13.4699 16.2508 14.3682V21.4919C16.2508 21.7103 16.4281 21.8876 16.6466 21.8876H20.6045C20.823 21.8876 21.0003 21.7103 21.0003 21.4919V13.5712C20.9551 10.3188 19.425 9.11495 18.1482 8.67803Z" fill="white"/>
</svg>
