<svg width="375" height="94" viewBox="0 0 375 94" fill="none" xmlns="http://www.w3.org/2000/svg">
<g opacity="0.3">
<path d="M36.3539 40.2397C36.3539 42.9495 35.7685 45.2799 34.5976 47.2309C33.4268 49.1277 31.9048 50.6722 30.0314 51.8645C28.2167 53.0568 26.1385 53.9239 23.7968 54.4659C21.5138 55.0078 19.2307 55.2788 16.9476 55.2788C14.6059 55.2788 12.5863 55.062 10.8886 54.6285C9.19091 54.1949 7.63958 53.7885 6.2346 53.4091C5.29795 53.1381 4.4491 52.9213 3.68807 52.7588C2.92704 52.542 2.16601 52.4336 1.40498 52.4336V43.1663H2.28309C2.28309 45.2257 2.83923 46.8786 3.95151 48.1251C5.12232 49.3174 6.46876 50.2387 7.99082 50.889C9.51289 51.5394 11.0349 51.9729 12.557 52.1897C14.0791 52.3523 15.1913 52.4336 15.8938 52.4336C18.4111 52.4336 20.5771 52.1084 22.3919 51.4581C24.2066 50.7535 25.6994 49.8593 26.8702 48.7754C28.0411 47.6373 28.8899 46.3909 29.4168 45.036C30.0022 43.6811 30.2949 42.2991 30.2949 40.8901C30.2949 39.1016 29.8851 37.6113 29.0655 36.419C28.246 35.1725 27.1629 34.0886 25.8165 33.1673C24.5286 32.246 23.0358 31.4602 21.3381 30.8098C19.6404 30.1595 17.9135 29.5091 16.1573 28.8588C14.1669 28.1543 12.2058 27.4226 10.2739 26.6639C8.34207 25.9052 6.61511 24.9839 5.09305 23.9C3.57099 22.7619 2.34163 21.4341 1.40498 19.9166C0.468327 18.345 0 16.4211 0 14.1449C0 11.7603 0.497597 9.70089 1.49279 7.96666C2.48799 6.17822 3.80515 4.71496 5.4443 3.57687C7.14198 2.43877 9.04456 1.59875 11.152 1.0568C13.318 0.460659 15.5133 0.162587 17.7379 0.162587C19.2599 0.162587 20.6942 0.270978 22.0406 0.487758C23.3871 0.65034 24.675 0.867119 25.9043 1.13809C26.8995 1.35487 27.8654 1.54456 28.8021 1.70714C29.7387 1.81553 30.6461 1.86972 31.5242 1.86972V10.2428H30.6461C30.529 7.4247 29.329 5.52788 27.0459 4.55237C24.7628 3.52267 21.6016 3.00782 17.5623 3.00782C15.2206 3.00782 13.2888 3.38718 11.7667 4.14591C10.3032 4.85045 9.13237 5.74466 8.25426 6.82856C7.37614 7.85827 6.76147 8.99636 6.41022 10.2428C6.11752 11.4351 5.97117 12.4919 5.97117 13.4132C5.97117 14.9307 6.32241 16.2314 7.0249 17.3153C7.78593 18.3992 8.78113 19.3476 10.0105 20.1605C11.2398 20.9734 12.6448 21.7051 14.2254 22.3554C15.8646 23.0057 17.5623 23.629 19.3185 24.2251C21.3089 24.9297 23.3285 25.6884 25.3775 26.5013C27.4264 27.3142 29.2411 28.3168 30.8218 29.5091C32.4609 30.7014 33.7781 32.1647 34.7733 33.8989C35.827 35.6332 36.3539 37.7468 36.3539 40.2397Z" fill="white" fill-opacity="0.5"/>
<path d="M62.796 53.8156H63.2351V54.6285H50.7659V53.8156H51.2049C51.6733 53.8156 52.083 53.653 52.4343 53.3278C52.7855 53.0026 53.0782 52.6233 53.3124 52.1897C53.6051 51.7561 53.81 51.2955 53.9271 50.8077C54.0442 50.2658 54.1027 49.778 54.1027 49.3445V3.98333H43.9166C42.9799 3.98333 42.1604 4.17301 41.4579 4.55237C40.7554 4.93174 40.17 5.41949 39.7017 6.01564C39.2333 6.55759 38.8821 7.18083 38.6479 7.88536C38.4138 8.5357 38.2967 9.18604 38.2967 9.83638H37.4186V0.97551H76.8458V9.83638H75.9677C75.9677 9.18604 75.8506 8.5357 75.6165 7.88536C75.3823 7.18083 75.0311 6.55759 74.5627 6.01564C74.0944 5.41949 73.509 4.93174 72.8065 4.55237C72.104 4.17301 71.2844 3.98333 70.3478 3.98333H59.9861V49.3445C59.9861 49.778 60.0446 50.2658 60.1617 50.8077C60.2788 51.2955 60.4544 51.7561 60.6886 52.1897C60.9813 52.6233 61.274 53.0026 61.5667 53.3278C61.9179 53.653 62.3277 53.8156 62.796 53.8156Z" fill="white" fill-opacity="0.5"/>
<path d="M93.5979 53.8156H94.0369V54.6285H81.6555V53.8156H82.0946C82.5044 53.8156 82.8849 53.653 83.2361 53.3278C83.5874 53.0026 83.8801 52.6233 84.1143 52.1897C84.407 51.7561 84.6119 51.2955 84.7289 50.8077C84.846 50.2658 84.9046 49.778 84.9046 49.3445V6.01564C84.9046 5.63627 84.846 5.20271 84.7289 4.71496C84.6119 4.22721 84.407 3.76655 84.1143 3.33299C83.8801 2.89943 83.5874 2.54716 83.2361 2.27619C82.8849 1.95102 82.5044 1.78843 82.0946 1.78843H81.6555V0.97551H96.9347C102.789 0.97551 107.296 2.03231 110.458 4.14591C113.677 6.25951 115.287 9.37572 115.287 13.4945C115.287 15.5539 114.907 17.3695 114.146 18.9411C113.443 20.4586 112.477 21.7864 111.248 22.9245C110.019 24.0084 108.555 24.9026 106.857 25.6071C105.218 26.2574 103.462 26.7452 101.589 27.0704L107.911 36.0125C109.433 38.1803 110.985 40.321 112.565 42.4346C114.146 44.494 115.697 46.6347 117.219 48.8567C117.629 49.3987 118.068 49.9677 118.536 50.5639C119.063 51.16 119.59 51.702 120.117 52.1897C120.702 52.6775 121.288 53.0839 121.873 53.4091C122.517 53.6801 123.161 53.8156 123.805 53.8156V54.6285H120.029C117.687 54.6285 115.756 54.1136 114.234 53.0839C112.77 52 111.541 50.7535 110.545 49.3445C107.911 45.7676 105.277 42.1366 102.642 38.4513C100.067 34.766 97.4908 31.135 94.915 27.5581C94.2711 27.5039 93.5686 27.4497 92.8076 27.3955C92.1051 27.2871 91.4319 27.1788 90.7879 27.0704V49.3445C90.7879 49.778 90.8465 50.2658 90.9635 50.8077C91.0806 51.2955 91.2562 51.7561 91.4904 52.1897C91.7831 52.6233 92.0758 53.0026 92.3685 53.3278C92.7198 53.653 93.1295 53.8156 93.5979 53.8156ZM90.7879 3.73945V24.3877H91.227C91.6953 24.4419 92.4271 24.4961 93.4223 24.5503C94.476 24.5503 95.7639 24.5503 97.2859 24.5503C98.5153 24.5503 99.8032 24.3877 101.15 24.0625C102.555 23.6832 103.843 23.087 105.013 22.2741C106.243 21.407 107.238 20.296 107.999 18.9411C108.818 17.5863 109.228 15.8791 109.228 13.8197C109.228 11.7603 108.789 10.0803 107.911 8.77958C107.092 7.4789 105.921 6.4492 104.399 5.69047C102.935 4.93174 101.15 4.41689 99.0422 4.14591C96.9347 3.87494 94.6223 3.73945 92.1051 3.73945H90.7879Z" fill="white" fill-opacity="0.5"/>
<path d="M162.621 53.8156H163.06C164.465 53.8156 165.167 53.2194 165.167 52.0271C165.167 51.5936 165.08 51.1329 164.904 50.6451L157.001 30.8911H141.634L133.994 50.32C133.819 50.7535 133.731 51.16 133.731 51.5394C133.731 52.2439 133.936 52.813 134.346 53.2465C134.756 53.6259 135.195 53.8156 135.663 53.8156H136.102V54.6285H126.355V53.8156H126.794C127.555 53.8156 128.287 53.4091 128.989 52.5962C129.75 51.729 130.365 50.7264 130.833 49.5884L150.942 0L170.612 49.1006C171.022 50.1845 171.578 51.2413 172.28 52.271C173.041 53.3007 174.007 53.8156 175.178 53.8156H175.617V54.6285H162.621V53.8156ZM142.512 28.1272H156.035L149.274 11.1371L142.512 28.1272Z" fill="white" fill-opacity="0.5"/>
<path d="M194.942 53.8156H195.381V54.6285H182.912V53.8156H183.351C183.819 53.8156 184.229 53.653 184.58 53.3278C184.931 53.0026 185.224 52.6233 185.458 52.1897C185.751 51.7561 185.956 51.2955 186.073 50.8077C186.19 50.2658 186.248 49.778 186.248 49.3445V3.98333H176.062C175.126 3.98333 174.306 4.17301 173.604 4.55237C172.901 4.93174 172.316 5.41949 171.847 6.01564C171.379 6.55759 171.028 7.18083 170.794 7.88536C170.559 8.5357 170.442 9.18604 170.442 9.83638H169.564V0.97551H208.991V9.83638H208.113C208.113 9.18604 207.996 8.5357 207.762 7.88536C207.528 7.18083 207.177 6.55759 206.708 6.01564C206.24 5.41949 205.655 4.93174 204.952 4.55237C204.25 4.17301 203.43 3.98333 202.493 3.98333H192.132V49.3445C192.132 49.778 192.19 50.2658 192.307 50.8077C192.424 51.2955 192.6 51.7561 192.834 52.1897C193.127 52.6233 193.42 53.0026 193.712 53.3278C194.064 53.653 194.473 53.8156 194.942 53.8156Z" fill="white" fill-opacity="0.5"/>
<path d="M213.801 53.8156H214.24C214.709 53.8156 215.118 53.6801 215.47 53.4091C215.821 53.0839 216.114 52.7046 216.348 52.271C216.64 51.8374 216.845 51.3768 216.962 50.889C217.138 50.4013 217.226 49.9406 217.226 49.5071V6.01564C217.226 5.63627 217.138 5.20271 216.962 4.71496C216.845 4.22721 216.64 3.76655 216.348 3.33299C216.114 2.89943 215.821 2.54716 215.47 2.27619C215.118 1.95102 214.709 1.78843 214.24 1.78843H213.801V0.97551H247.609V8.5357H246.73C246.613 7.28922 246.086 6.20532 245.15 5.284C244.213 4.3085 242.75 3.82075 240.759 3.82075H223.109V24.3877H237.686C239.032 24.3877 240.145 24.0084 241.023 23.2496C241.959 22.4909 242.428 21.5967 242.428 20.567H243.306V30.7285H242.428C242.428 29.753 241.989 28.913 241.11 28.2085C240.232 27.5039 239.091 27.1517 237.686 27.1517H223.109V51.7832H242.34C243.452 51.7832 244.418 51.5394 245.238 51.0516C246.057 50.5639 246.73 49.9948 247.257 49.3445C247.843 48.6399 248.252 47.9083 248.487 47.1496C248.779 46.3367 248.926 45.6592 248.926 45.1173H249.804V54.6285H213.801V53.8156Z" fill="white" fill-opacity="0.5"/>
<path d="M294.179 26.3387H306.736V27.1517H306.297C305.829 27.1517 305.419 27.3142 305.068 27.6394C304.717 27.9104 304.424 28.2626 304.19 28.6962C303.956 29.1298 303.751 29.5904 303.575 30.0782C303.458 30.5659 303.4 30.9995 303.4 31.3789V53.1652C302.346 53.5446 301.146 53.8698 299.799 54.1407C298.453 54.4117 297.048 54.6285 295.584 54.7911C294.121 55.0078 292.628 55.1704 291.106 55.2788C289.584 55.3872 288.179 55.4414 286.891 55.4414C281.622 55.4414 277.027 54.6285 273.105 53.0026C269.182 51.3768 265.933 49.2632 263.358 46.6618C260.782 44.0063 258.85 41.0256 257.562 37.7197C256.333 34.4138 255.718 31.0808 255.718 27.7207C255.718 24.3606 256.333 21.0276 257.562 17.7217C258.85 14.4158 260.782 11.4622 263.358 8.86087C265.992 6.25952 269.27 4.17301 273.192 2.60136C277.173 0.97551 281.886 0.162587 287.33 0.162587C289.379 0.162587 291.282 0.325172 293.038 0.65034C294.794 0.975509 296.345 1.27358 297.692 1.54455C298.453 1.70714 299.097 1.86973 299.624 2.03231C300.209 2.1407 300.707 2.19489 301.116 2.19489H301.907V10.8119H301.029C300.677 9.13184 299.975 7.77697 298.921 6.74727C297.926 5.71756 296.755 4.93174 295.409 4.38979C294.062 3.84784 292.628 3.49557 291.106 3.33299C289.642 3.11621 288.267 3.00782 286.979 3.00782C282.588 3.00782 278.783 3.73945 275.563 5.20271C272.344 6.61178 269.709 8.45441 267.66 10.7306C265.611 13.0068 264.089 15.581 263.094 18.4534C262.099 21.2715 261.601 24.0896 261.601 26.9078C261.601 30.0511 262.245 33.1673 263.533 36.2564C264.821 39.2913 266.636 42.0282 268.978 44.4669C271.319 46.8515 274.129 48.8025 277.407 50.32C280.744 51.7832 284.432 52.5149 288.472 52.5149C289.584 52.5149 290.96 52.4065 292.599 52.1897C294.238 51.9187 295.877 51.3497 297.516 50.4826V31.3789C297.516 30.9995 297.458 30.5659 297.341 30.0782C297.223 29.5904 297.019 29.1298 296.726 28.6962C296.492 28.2626 296.199 27.9104 295.848 27.6394C295.497 27.3142 295.087 27.1517 294.618 27.1517H294.179V26.3387Z" fill="white" fill-opacity="0.5"/>
<path d="M314.484 0.97551H327.041V1.78843H326.602C326.192 1.78843 325.811 1.95102 325.46 2.27619C325.109 2.54716 324.816 2.89943 324.582 3.33299C324.348 3.71235 324.143 4.17301 323.967 4.71496C323.85 5.20271 323.792 5.63627 323.792 6.01564V49.3445C323.792 49.778 323.85 50.2658 323.967 50.8077C324.084 51.2955 324.26 51.7561 324.494 52.1897C324.787 52.6233 325.08 53.0026 325.372 53.3278C325.723 53.653 326.133 53.8156 326.602 53.8156H327.041V54.6285H314.484V53.8156H314.923C315.391 53.8156 315.801 53.6801 316.152 53.4091C316.503 53.0839 316.796 52.7046 317.03 52.271C317.323 51.7832 317.528 51.2955 317.645 50.8077C317.762 50.2658 317.82 49.778 317.82 49.3445V6.01564C317.82 5.63627 317.762 5.20271 317.645 4.71496C317.528 4.22721 317.323 3.76655 317.03 3.33299C316.796 2.89943 316.503 2.54716 316.152 2.27619C315.801 1.95102 315.391 1.78843 314.923 1.78843H314.484V0.97551Z" fill="white" fill-opacity="0.5"/>
<path d="M350.588 27.7207L338.383 6.58468C338.09 6.15112 337.739 5.66337 337.329 5.12142C336.978 4.52528 336.597 3.98333 336.187 3.49558C335.778 3.00782 335.309 2.60136 334.782 2.27619C334.314 1.95102 333.817 1.78843 333.29 1.78843V0.97551H345.759V1.78843C345.408 1.78843 344.998 2.00521 344.53 2.43877C344.12 2.87233 343.915 3.41428 343.915 4.06462C343.915 4.44399 344.032 4.82335 344.266 5.20271L354.189 22.2741L363.233 6.01564C363.233 5.85305 363.321 5.69047 363.497 5.52788C363.614 5.25691 363.731 4.98593 363.848 4.71496C364.024 4.38979 364.111 4.09172 364.111 3.82075C364.111 2.95363 363.789 2.41167 363.145 2.19489C362.502 1.92392 362.092 1.78843 361.916 1.78843V0.97551H371.663V1.78843C370.668 1.78843 369.702 2.30328 368.765 3.33299C367.887 4.3085 367.185 5.28401 366.658 6.25951L355.945 25.2006L369.643 49.1006C369.936 49.5884 370.287 50.1032 370.697 50.6451C371.107 51.1871 371.546 51.702 372.014 52.1897C372.483 52.6775 372.951 53.0839 373.419 53.4091C373.946 53.6801 374.473 53.8156 375 53.8156V54.6285H362.531V53.8156C362.882 53.8156 363.233 53.5988 363.585 53.1652C363.936 52.7317 364.111 52.2168 364.111 51.6207C364.111 51.2413 363.936 50.7535 363.585 50.1574L352.433 30.8098L341.456 50.1574C341.28 50.4826 341.105 50.8619 340.929 51.2955C340.812 51.7291 340.754 52.1355 340.754 52.5149C340.754 53.382 341.193 53.8156 342.071 53.8156V54.6285H332.499V53.8156C332.909 53.8156 333.377 53.7072 333.904 53.4904C334.431 53.2194 334.958 52.8942 335.485 52.5149C336.012 52.1355 336.509 51.702 336.978 51.2142C337.446 50.7264 337.827 50.2658 338.119 49.8322L350.588 27.7207Z" fill="white" fill-opacity="0.5"/>
<path d="M31.5049 93.2586H31.7157C31.9124 93.2586 32.095 93.1936 32.2636 93.0635C32.4322 92.9074 32.5727 92.7253 32.6851 92.5172C32.8256 92.2831 32.924 92.049 32.9802 91.8149C33.0364 91.5547 33.0645 91.3206 33.0645 91.1125V80.499H19.5767V91.1125C19.5767 91.3206 19.6048 91.5547 19.661 91.8149C19.7172 92.049 19.8015 92.2701 19.9138 92.4782C20.0262 92.6863 20.1527 92.8684 20.2932 93.0245C20.4618 93.1806 20.6585 93.2586 20.8833 93.2586H21.094V93.6488H15.1931V93.2586H15.4039C15.6006 93.2586 15.7832 93.1936 15.9518 93.0635C16.1204 92.9074 16.2609 92.7253 16.3733 92.5172C16.5138 92.2831 16.6121 92.049 16.6683 91.8149C16.7245 91.5547 16.7526 91.3206 16.7526 91.1125V70.3147C16.7526 70.1326 16.7245 69.9245 16.6683 69.6903C16.6121 69.4562 16.5278 69.2351 16.4154 69.027C16.3031 68.8189 16.1626 68.6498 15.994 68.5197C15.8254 68.3636 15.6287 68.2856 15.4039 68.2856H15.1931V67.8954H21.094V68.2856H20.8833C20.6585 68.2856 20.4618 68.3636 20.2932 68.5197C20.1246 68.6498 19.9841 68.8189 19.8717 69.027C19.7874 69.2351 19.7172 69.4562 19.661 69.6903C19.6048 69.9245 19.5767 70.1326 19.5767 70.3147V79.1332H33.0645V70.3147C33.0645 70.1326 33.0364 69.9245 32.9802 69.6903C32.924 69.4562 32.8397 69.2351 32.7273 69.027C32.6149 68.8189 32.4744 68.6498 32.3058 68.5197C32.1372 68.3636 31.9405 68.2856 31.7157 68.2856H31.5049V67.8954H37.4059V68.2856H37.1951C36.9703 68.2856 36.7736 68.3636 36.605 68.5197C36.4364 68.6498 36.2959 68.8189 36.1835 69.027C36.0992 69.2351 36.029 69.4562 35.9728 69.6903C35.9166 69.9245 35.8885 70.1326 35.8885 70.3147V91.1125C35.8885 91.3206 35.9166 91.5547 35.9728 91.8149C36.0571 92.049 36.1554 92.2701 36.2678 92.4782C36.3802 92.6863 36.5067 92.8684 36.6472 93.0245C36.8158 93.1806 36.9984 93.2586 37.1951 93.2586H37.4059V93.6488H31.5049V93.2586Z" fill="white" fill-opacity="0.5"/>
<path d="M43.2254 85.7667C43.3378 86.6772 43.5767 87.5486 43.942 88.3811C44.3073 89.1875 44.785 89.9029 45.375 90.5272C45.9932 91.1515 46.7379 91.6588 47.609 92.049C48.4801 92.4132 49.4916 92.5953 50.6437 92.5953C51.2619 92.5953 51.9082 92.5172 52.5826 92.3611C53.2851 92.1791 53.9314 91.9319 54.5215 91.6198C55.1116 91.3076 55.6314 90.9304 56.081 90.4882C56.5587 90.0199 56.8818 89.4997 57.0504 88.9274H57.4298V91.8539C57.2612 91.8539 57.0645 91.9059 56.8397 92.01C56.643 92.114 56.4041 92.2441 56.1231 92.4002C55.5612 92.7123 54.8025 93.0505 53.8471 93.4147C52.8917 93.7529 51.6272 93.922 50.0536 93.922C48.7892 93.922 47.5809 93.7529 46.4288 93.4147C45.3048 93.0765 44.3073 92.5563 43.4362 91.8539C42.5651 91.1515 41.8626 90.2541 41.3287 89.1615C40.8229 88.0689 40.57 86.7682 40.57 85.2594C40.57 84.2969 40.7386 83.3214 41.0758 82.3329C41.4411 81.3444 41.975 80.4599 42.6775 79.6795C43.4081 78.8731 44.3354 78.2228 45.4593 77.7285C46.5833 77.2343 47.9321 76.9871 49.5057 76.9871C50.9107 76.9871 52.133 77.2082 53.1727 77.6505C54.2405 78.0927 55.1116 78.704 55.786 79.4844C56.4884 80.2648 57.0083 81.1883 57.3455 82.2549C57.6827 83.3214 57.8513 84.492 57.8513 85.7667H43.2254ZM49.3371 78.2748C48.3536 78.2748 47.4966 78.4569 46.766 78.8211C46.0635 79.1853 45.4593 79.6535 44.9536 80.2258C44.4478 80.7981 44.0544 81.4485 43.7734 82.1768C43.4924 82.9052 43.3097 83.6336 43.2254 84.362H55.238C55.2099 83.6076 55.0554 82.8662 54.7744 82.1378C54.5215 81.4094 54.1562 80.7591 53.6785 80.1868C53.2008 79.6145 52.5966 79.1593 51.8661 78.8211C51.1355 78.4569 50.2925 78.2748 49.3371 78.2748Z" fill="white" fill-opacity="0.5"/>
<path d="M71.3394 93.6488V91.6588L71.1287 91.8539C70.4262 92.5042 69.6113 93.0115 68.684 93.3757C67.7848 93.7399 66.6889 93.922 65.3963 93.922C64.4129 93.922 63.5699 93.8179 62.8674 93.6098C62.1649 93.4017 61.5888 93.1155 61.1393 92.7514C60.6897 92.3612 60.3525 91.9189 60.1277 91.4247C59.931 90.9304 59.8326 90.4101 59.8326 89.8638C59.8326 88.9794 60.0855 88.199 60.5913 87.5226C61.1252 86.8463 61.8839 86.248 62.8674 85.7277C63.8509 85.2074 65.0451 84.7392 66.4501 84.323C67.8832 83.8807 69.5129 83.4515 71.3394 83.0353C71.2832 82.0208 71.0584 81.2013 70.665 80.577C70.2716 79.9527 69.808 79.4714 69.2741 79.1332C68.7402 78.7691 68.1782 78.5349 67.5881 78.4309C66.998 78.3008 66.4922 78.2358 66.0707 78.2358C65.3401 78.2358 64.6939 78.3398 64.1319 78.5479C63.598 78.7561 63.1203 79.0292 62.6988 79.3674C62.3054 79.6795 61.9682 80.0307 61.6872 80.4209C61.4062 80.7851 61.1814 81.1363 61.0128 81.4745H60.6335V78.626C60.8583 78.6 61.069 78.5349 61.2657 78.4309C61.4624 78.3268 61.7012 78.2228 61.9822 78.1187C62.4037 77.9626 62.9798 77.7415 63.7104 77.4554C64.441 77.1432 65.4666 76.9871 66.7873 76.9871C68.3327 76.9871 69.5832 77.1692 70.5386 77.5334C71.494 77.8976 72.2245 78.3789 72.7303 78.9772C73.2642 79.5755 73.6155 80.2648 73.7841 81.0452C73.9527 81.7996 74.037 82.58 74.037 83.3865V91.1125C74.037 91.6328 74.1634 92.127 74.4163 92.5953C74.6692 93.0375 75.0064 93.2586 75.4279 93.2586V93.6488H71.3394ZM71.3394 89.9419V84.362L70.9179 84.44C70.2435 84.5961 69.4146 84.8042 68.4311 85.0643C67.4757 85.3245 66.5625 85.6627 65.6914 86.0789C64.8203 86.4951 64.0757 86.9893 63.4575 87.5616C62.8393 88.1339 62.5302 88.7973 62.5302 89.5517C62.5302 90.3841 62.8955 91.0735 63.6261 91.6198C64.3567 92.166 65.312 92.4392 66.4922 92.4392C67.4195 92.4392 68.2344 92.2571 68.9369 91.8929C69.6394 91.5027 70.2857 91.0084 70.8758 90.4101L71.3394 89.9419Z" fill="white" fill-opacity="0.5"/>
<path d="M79.6442 93.6488V93.2586C79.869 93.2586 80.0657 93.1806 80.2343 93.0245C80.4028 92.8684 80.5433 92.6863 80.6557 92.4782C80.7962 92.2701 80.8946 92.049 80.9508 91.8149C81.007 91.5547 81.0351 91.3206 81.0351 91.1125V71.1341C81.0351 70.6918 80.9648 70.2756 80.8243 69.8854C80.6838 69.4952 80.2623 69.2871 79.5599 69.2611V68.8709L83.8169 67.6613V91.1125C83.8169 91.3206 83.845 91.5547 83.9012 91.8149C83.9574 92.049 84.0417 92.2701 84.1541 92.4782C84.2946 92.6863 84.4351 92.8684 84.5756 93.0245C84.7442 93.1806 84.9409 93.2586 85.1657 93.2586V93.6488H79.6442Z" fill="white" fill-opacity="0.5"/>
<path d="M93.3615 78.587V87.9909C93.3615 88.6672 93.3755 89.2785 93.4036 89.8248C93.4317 90.3711 93.502 90.8263 93.6144 91.1905C93.7268 91.5547 93.8954 91.8409 94.1202 92.049C94.345 92.2311 94.6541 92.3221 95.0475 92.3221C95.6376 92.3221 96.1855 92.062 96.6913 91.5417C97.2252 91.0214 97.5624 90.3971 97.7029 89.6687H98.0822V92.5172C97.8293 92.5172 97.6186 92.5953 97.45 92.7514C97.2252 92.9334 96.902 93.1285 96.4805 93.3367C96.0871 93.5448 95.483 93.6488 94.6681 93.6488C93.6565 93.6488 92.8697 93.4667 92.3077 93.1025C91.7458 92.7383 91.3383 92.2571 91.0854 91.6588C90.8325 91.0605 90.678 90.3971 90.6218 89.6687C90.5937 88.9404 90.5796 88.199 90.5796 87.4446V78.587H88.2193V77.2603H90.5796V73.7875C90.5796 73.3452 90.5094 72.942 90.3689 72.5778C90.2565 72.1876 89.849 71.9795 89.1465 71.9535V71.5633L93.3615 70.3147V77.2603H98.0822V78.587H93.3615Z" fill="white" fill-opacity="0.5"/>
<path d="M118.194 91.1125C118.194 91.3206 118.222 91.5547 118.278 91.8149C118.335 92.049 118.419 92.2701 118.531 92.4782C118.672 92.6863 118.812 92.8684 118.953 93.0245C119.121 93.1806 119.318 93.2586 119.543 93.2586V93.6488H114.106V93.2586C114.302 93.2586 114.485 93.1806 114.654 93.0245C114.822 92.8684 114.963 92.6863 115.075 92.4782C115.216 92.2701 115.314 92.049 115.37 91.8149C115.426 91.5547 115.454 91.3206 115.454 91.1125V83.8547C115.454 82.9182 115.314 82.0988 115.033 81.3964C114.752 80.6941 114.373 80.1088 113.895 79.6405C113.417 79.1723 112.869 78.8341 112.251 78.626C111.661 78.3919 111.057 78.2748 110.439 78.2748C109.82 78.2748 109.202 78.3919 108.584 78.626C107.994 78.8341 107.46 79.1333 106.982 79.5235C106.533 79.9137 106.153 80.3949 105.844 80.9672C105.563 81.5135 105.423 82.1248 105.423 82.8012V91.1125C105.423 91.3206 105.451 91.5547 105.507 91.8149C105.563 92.049 105.648 92.2701 105.76 92.4782C105.9 92.6863 106.041 92.8684 106.181 93.0245C106.35 93.1806 106.547 93.2586 106.772 93.2586V93.6488H101.292V93.2586C101.489 93.2586 101.672 93.1806 101.84 93.0245C102.009 92.8684 102.149 92.6863 102.262 92.4782C102.402 92.2701 102.5 92.049 102.557 91.8149C102.613 91.5547 102.641 91.3206 102.641 91.1125V71.1731C102.641 70.7309 102.571 70.3147 102.43 69.9245C102.29 69.5342 101.882 69.3261 101.208 69.3001V68.9099L105.423 67.7003V78.9772C105.619 78.7691 105.872 78.548 106.181 78.3138C106.491 78.0537 106.856 77.8196 107.277 77.6115C107.727 77.3773 108.233 77.1952 108.795 77.0652C109.385 76.9091 110.073 76.831 110.86 76.831C112.181 76.831 113.305 77.0392 114.232 77.4554C115.159 77.8716 115.918 78.4179 116.508 79.0942C117.098 79.7446 117.52 80.473 117.773 81.2794C118.054 82.0598 118.194 82.8272 118.194 83.5816V91.1125Z" fill="white" fill-opacity="0.5"/>
<path d="M139.236 92.2441C139.011 92.2441 138.801 92.2961 138.604 92.4002C138.407 92.4782 138.182 92.5823 137.93 92.7123C137.452 92.9725 136.848 93.2456 136.117 93.5318C135.387 93.7919 134.431 93.922 133.251 93.922C131.818 93.922 130.483 93.7139 129.247 93.2976C128.038 92.8554 126.985 92.2571 126.086 91.5027C125.214 90.7223 124.526 89.8248 124.02 88.8103C123.543 87.7698 123.304 86.6512 123.304 85.4545C123.304 84.336 123.514 83.2694 123.936 82.2549C124.386 81.2403 125.018 80.3429 125.833 79.5625C126.648 78.7821 127.645 78.1577 128.825 77.6895C130.034 77.2213 131.396 76.9871 132.914 76.9871C133.953 76.9871 134.796 77.1042 135.443 77.3383C136.089 77.5464 136.637 77.7545 137.087 77.9626C137.339 78.0927 137.578 78.1968 137.803 78.2748C138.056 78.3528 138.309 78.3919 138.562 78.3919V81.3574H138.14C138 80.8632 137.747 80.4339 137.382 80.0697C137.016 79.6795 136.595 79.3544 136.117 79.0942C135.639 78.8341 135.12 78.639 134.558 78.5089C133.996 78.3789 133.448 78.3138 132.914 78.3138C131.762 78.3138 130.75 78.5089 129.879 78.8991C129.008 79.2633 128.291 79.7576 127.729 80.3819C127.167 80.9802 126.746 81.6696 126.465 82.45C126.184 83.2304 126.043 84.0368 126.043 84.8692C126.043 85.8317 126.212 86.7812 126.549 87.7177C126.886 88.6282 127.364 89.4476 127.982 90.176C128.629 90.9044 129.401 91.4897 130.3 91.9319C131.2 92.3742 132.211 92.5953 133.335 92.5953C134.122 92.5953 134.839 92.4912 135.485 92.2831C136.159 92.075 136.721 91.8019 137.171 91.4637C137.649 91.1255 138.028 90.7613 138.309 90.3711C138.59 89.9549 138.758 89.5647 138.815 89.2005H139.236V92.2441Z" fill="white" fill-opacity="0.5"/>
<path d="M153.169 93.6488V91.6588L152.958 91.8539C152.255 92.5042 151.44 93.0115 150.513 93.3757C149.614 93.7399 148.518 93.922 147.225 93.922C146.242 93.922 145.399 93.8179 144.696 93.6098C143.994 93.4017 143.418 93.1155 142.968 92.7514C142.519 92.3612 142.182 91.9189 141.957 91.4247C141.76 90.9304 141.662 90.4101 141.662 89.8638C141.662 88.9794 141.915 88.199 142.42 87.5226C142.954 86.8463 143.713 86.248 144.696 85.7277C145.68 85.2074 146.874 84.7392 148.279 84.323C149.712 83.8807 151.342 83.4515 153.169 83.0353C153.112 82.0208 152.888 81.2013 152.494 80.577C152.101 79.9527 151.637 79.4714 151.103 79.1332C150.569 78.7691 150.007 78.5349 149.417 78.4309C148.827 78.3008 148.321 78.2358 147.9 78.2358C147.169 78.2358 146.523 78.3398 145.961 78.5479C145.427 78.7561 144.949 79.0292 144.528 79.3674C144.134 79.6795 143.797 80.0307 143.516 80.4209C143.235 80.7851 143.011 81.1363 142.842 81.4745H142.463V78.626C142.687 78.6 142.898 78.5349 143.095 78.4309C143.292 78.3268 143.53 78.2228 143.811 78.1187C144.233 77.9626 144.809 77.7415 145.539 77.4554C146.27 77.1432 147.296 76.9871 148.616 76.9871C150.162 76.9871 151.412 77.1692 152.368 77.5334C153.323 77.8976 154.054 78.3789 154.559 78.9772C155.093 79.5755 155.445 80.2648 155.613 81.0452C155.782 81.7996 155.866 82.58 155.866 83.3865V91.1125C155.866 91.6328 155.993 92.127 156.245 92.5953C156.498 93.0375 156.836 93.2586 157.257 93.2586V93.6488H153.169ZM153.169 89.9419V84.362L152.747 84.44C152.073 84.5961 151.244 84.8042 150.26 85.0643C149.305 85.3245 148.392 85.6627 147.521 86.0789C146.649 86.4951 145.905 86.9893 145.287 87.5616C144.668 88.1339 144.359 88.7973 144.359 89.5517C144.359 90.3841 144.725 91.0735 145.455 91.6198C146.186 92.166 147.141 92.4392 148.321 92.4392C149.249 92.4392 150.064 92.2571 150.766 91.8929C151.468 91.5027 152.115 91.0084 152.705 90.4101L153.169 89.9419Z" fill="white" fill-opacity="0.5"/>
<path d="M171.589 80.1088C171.252 79.5885 170.901 79.2633 170.535 79.1332C170.17 79.0032 169.749 78.9381 169.271 78.9381C168.962 78.9381 168.625 79.0032 168.259 79.1332C167.922 79.2633 167.585 79.4324 167.248 79.6405C166.911 79.8486 166.573 80.0827 166.236 80.3429C165.927 80.577 165.66 80.7981 165.435 81.0062V91.1515C165.435 91.3596 165.463 91.5807 165.52 91.8149C165.576 92.049 165.66 92.2831 165.773 92.5172C165.913 92.7253 166.054 92.9074 166.194 93.0635C166.363 93.1936 166.559 93.2586 166.784 93.2586V93.6488H161.305V93.2586C161.501 93.2586 161.684 93.1936 161.853 93.0635C162.021 92.9074 162.162 92.7253 162.274 92.5172C162.415 92.2831 162.513 92.049 162.569 91.8149C162.625 91.5807 162.653 91.3596 162.653 91.1515V80.2648C162.653 79.9007 162.527 79.5365 162.274 79.1723C162.021 78.8081 161.656 78.574 161.178 78.4699V78.1577L165.435 76.9871V79.3284C165.688 79.0422 165.955 78.7691 166.236 78.5089C166.517 78.2228 166.826 77.9756 167.163 77.7675C167.529 77.5334 167.922 77.3513 168.344 77.2213C168.765 77.0652 169.257 76.9871 169.819 76.9871C170.212 76.9871 170.718 77.0652 171.336 77.2213C171.954 77.3773 172.46 77.5464 172.854 77.7285L171.589 80.1088Z" fill="white" fill-opacity="0.5"/>
<path d="M177.824 85.7667C177.936 86.6772 178.175 87.5486 178.54 88.3811C178.905 89.1875 179.383 89.9029 179.973 90.5272C180.591 91.1515 181.336 91.6588 182.207 92.049C183.078 92.4132 184.09 92.5953 185.242 92.5953C185.86 92.5953 186.506 92.5172 187.181 92.3611C187.883 92.1791 188.53 91.9319 189.12 91.6198C189.71 91.3076 190.23 90.9304 190.679 90.4882C191.157 90.0199 191.48 89.4997 191.649 88.9274H192.028V91.8539C191.859 91.8539 191.663 91.9059 191.438 92.01C191.241 92.114 191.002 92.2441 190.721 92.4002C190.159 92.7123 189.401 93.0505 188.445 93.4147C187.49 93.7529 186.225 93.922 184.652 93.922C183.387 93.922 182.179 93.7529 181.027 93.4147C179.903 93.0765 178.905 92.5563 178.034 91.8539C177.163 91.1515 176.461 90.2541 175.927 89.1615C175.421 88.0689 175.168 86.7682 175.168 85.2594C175.168 84.2969 175.337 83.3214 175.674 82.3329C176.039 81.3444 176.573 80.4599 177.276 79.6795C178.006 78.8731 178.934 78.2228 180.058 77.7285C181.182 77.2343 182.53 76.9871 184.104 76.9871C185.509 76.9871 186.731 77.2082 187.771 77.6505C188.839 78.0927 189.71 78.704 190.384 79.4844C191.087 80.2648 191.606 81.1883 191.944 82.2549C192.281 83.3214 192.449 84.492 192.449 85.7667H177.824ZM183.935 78.2748C182.952 78.2748 182.095 78.4569 181.364 78.8211C180.662 79.1853 180.058 79.6535 179.552 80.2258C179.046 80.7981 178.653 81.4485 178.372 82.1768C178.091 82.9052 177.908 83.6336 177.824 84.362H189.836C189.808 83.6076 189.654 82.8662 189.373 82.1378C189.12 81.4094 188.754 80.7591 188.277 80.1868C187.799 79.6145 187.195 79.1593 186.464 78.8211C185.734 78.4569 184.891 78.2748 183.935 78.2748Z" fill="white" fill-opacity="0.5"/>
<path d="M220.61 89.2005C220.61 89.8769 220.428 90.5012 220.062 91.0735C219.697 91.6458 219.191 92.153 218.545 92.5953C217.927 93.0115 217.196 93.3497 216.353 93.6098C215.51 93.8439 214.597 93.961 213.613 93.961C212.405 93.961 211.422 93.8179 210.663 93.5318C209.904 93.2196 209.258 92.9074 208.724 92.5953C208.359 92.3872 208.022 92.2181 207.712 92.088C207.403 91.9319 207.066 91.8539 206.701 91.8539V88.8883H207.122C207.207 89.2525 207.446 89.6557 207.839 90.098C208.26 90.5142 208.752 90.9044 209.314 91.2686C209.904 91.6328 210.536 91.9449 211.211 92.2051C211.913 92.4392 212.616 92.5562 213.318 92.5562C213.824 92.5562 214.344 92.5042 214.878 92.4002C215.412 92.2961 215.889 92.127 216.311 91.8929C216.761 91.6588 217.126 91.3726 217.407 91.0345C217.716 90.6703 217.87 90.241 217.87 89.7468C217.87 89.2525 217.716 88.8233 217.407 88.4591C217.098 88.0949 216.704 87.7828 216.227 87.5226C215.749 87.2365 215.201 86.9893 214.583 86.7812C213.965 86.5731 213.346 86.378 212.728 86.1959C211.998 85.9878 211.253 85.7537 210.494 85.4936C209.764 85.2334 209.103 84.9343 208.513 84.5961C207.923 84.2319 207.446 83.8027 207.08 83.3084C206.715 82.7882 206.532 82.1768 206.532 81.4745C206.532 80.8762 206.645 80.3039 206.869 79.7576C207.122 79.2113 207.516 78.743 208.05 78.3528C208.612 77.9366 209.328 77.6115 210.199 77.3773C211.07 77.1172 212.124 76.9871 213.361 76.9871C214.456 76.9871 215.299 77.0782 215.889 77.2603C216.508 77.4164 217.013 77.5854 217.407 77.7675C217.66 77.8976 217.913 78.0017 218.166 78.0797C218.418 78.1317 218.699 78.1577 219.009 78.1577V80.8892H218.671C218.166 80.0307 217.393 79.3804 216.353 78.9381C215.313 78.4959 214.246 78.2748 213.15 78.2748C212.447 78.2748 211.843 78.3658 211.337 78.5479C210.832 78.704 210.41 78.9121 210.073 79.1723C209.764 79.4064 209.525 79.6795 209.356 79.9917C209.216 80.3039 209.146 80.616 209.146 80.9282C209.146 81.3704 209.272 81.7476 209.525 82.0598C209.806 82.3719 210.171 82.6451 210.621 82.8792C211.098 83.1133 211.618 83.3344 212.18 83.5425C212.77 83.7507 213.389 83.9458 214.035 84.1279C214.822 84.362 215.608 84.6221 216.395 84.9083C217.182 85.1684 217.885 85.4936 218.503 85.8838C219.121 86.274 219.627 86.7422 220.02 87.2885C220.413 87.8088 220.61 88.4461 220.61 89.2005Z" fill="white" fill-opacity="0.5"/>
<path d="M233.092 93.922C231.687 93.922 230.423 93.7139 229.299 93.2976C228.175 92.8554 227.205 92.2701 226.39 91.5417C225.603 90.7873 224.985 89.9029 224.536 88.8883C224.114 87.8738 223.903 86.7682 223.903 85.5716C223.903 84.2969 224.142 83.1393 224.62 82.0988C225.098 81.0322 225.758 80.1218 226.601 79.3674C227.444 78.613 228.442 78.0277 229.594 77.6115C230.746 77.1952 231.996 76.9871 233.345 76.9871C234.694 76.9871 235.93 77.1952 237.054 77.6115C238.178 78.0017 239.147 78.561 239.962 79.2893C240.777 80.0177 241.409 80.8892 241.859 81.9037C242.309 82.8922 242.533 83.9848 242.533 85.1814C242.533 86.3 242.323 87.3926 241.901 88.4591C241.508 89.4996 240.904 90.4231 240.089 91.2296C239.302 92.036 238.319 92.6863 237.138 93.1806C235.986 93.6748 234.637 93.922 233.092 93.922ZM232.839 78.2748C231.828 78.3268 230.928 78.561 230.142 78.9772C229.383 79.3674 228.737 79.8876 228.203 80.538C227.697 81.1623 227.303 81.8777 227.022 82.6841C226.77 83.4905 226.643 84.31 226.643 85.1424C226.643 86.1049 226.798 87.0414 227.107 87.9518C227.444 88.8363 227.908 89.6297 228.498 90.3321C229.116 91.0345 229.846 91.5938 230.689 92.01C231.532 92.4262 232.474 92.6343 233.514 92.6343C234.553 92.6343 235.466 92.4262 236.253 92.01C237.068 91.5938 237.743 91.0605 238.276 90.4101C238.81 89.7338 239.204 88.9794 239.457 88.1469C239.738 87.3145 239.878 86.4821 239.878 85.6496C239.878 84.7912 239.738 83.9328 239.457 83.0743C239.176 82.1898 238.74 81.3964 238.15 80.6941C237.56 79.9657 236.815 79.3804 235.916 78.9381C235.045 78.4959 234.019 78.2748 232.839 78.2748Z" fill="white" fill-opacity="0.5"/>
<path d="M246.472 93.6488V93.2586C246.697 93.2586 246.893 93.1806 247.062 93.0245C247.231 92.8684 247.371 92.6863 247.483 92.4782C247.624 92.2701 247.722 92.049 247.778 91.8149C247.835 91.5547 247.863 91.3206 247.863 91.1125V71.1341C247.863 70.6918 247.792 70.2756 247.652 69.8854C247.512 69.4952 247.09 69.2871 246.388 69.2611V68.8709L250.645 67.6613V91.1125C250.645 91.3206 250.673 91.5547 250.729 91.8149C250.785 92.049 250.869 92.2701 250.982 92.4782C251.122 92.6863 251.263 92.8684 251.403 93.0245C251.572 93.1806 251.769 93.2586 251.993 93.2586V93.6488H246.472Z" fill="white" fill-opacity="0.5"/>
<path d="M272.75 91.1125C272.75 91.2946 272.778 91.5157 272.834 91.7758C272.89 92.01 272.96 92.2441 273.045 92.4782C273.157 92.6863 273.298 92.8684 273.466 93.0245C273.635 93.1806 273.831 93.2586 274.056 93.2586V93.6488H269.968V91.5027C269.546 92.075 268.928 92.6343 268.113 93.1806C267.298 93.7269 266.245 94 264.952 94C263.322 94 262.03 93.7399 261.074 93.2196C260.119 92.6993 259.388 92.036 258.883 91.2296C258.377 90.4231 258.054 89.5517 257.913 88.6152C257.773 87.6527 257.702 86.7552 257.702 85.9228V80.3429C257.702 80.1088 257.688 79.8876 257.66 79.6795C257.66 79.4454 257.604 79.2373 257.492 79.0552C257.407 78.8731 257.267 78.73 257.07 78.626C256.873 78.4959 256.592 78.4309 256.227 78.4309V78.0797L260.484 76.831V86.7812C260.484 88.7583 260.948 90.215 261.875 91.1515C262.802 92.088 263.94 92.5562 265.289 92.5562C266.02 92.5562 266.666 92.4132 267.228 92.127C267.818 91.8149 268.31 91.4507 268.703 91.0345C269.125 90.6182 269.434 90.189 269.631 89.7468C269.855 89.3046 269.968 88.9404 269.968 88.6542V80.3429C269.968 80.1088 269.954 79.8876 269.926 79.6795C269.926 79.4454 269.869 79.2373 269.757 79.0552C269.673 78.8731 269.532 78.73 269.336 78.626C269.139 78.4959 268.858 78.4309 268.493 78.4309V78.0797L272.75 76.831V91.1125Z" fill="white" fill-opacity="0.5"/>
<path d="M282.293 78.587V87.9909C282.293 88.6672 282.307 89.2785 282.335 89.8248C282.363 90.3711 282.433 90.8263 282.546 91.1905C282.658 91.5547 282.827 91.8409 283.052 92.049C283.276 92.2311 283.585 92.3221 283.979 92.3221C284.569 92.3221 285.117 92.062 285.623 91.5417C286.157 91.0214 286.494 90.3971 286.634 89.6687H287.014V92.5172C286.761 92.5172 286.55 92.5953 286.381 92.7514C286.157 92.9334 285.833 93.1285 285.412 93.3367C285.019 93.5448 284.414 93.6488 283.6 93.6488C282.588 93.6488 281.801 93.4667 281.239 93.1025C280.677 92.7383 280.27 92.2571 280.017 91.6588C279.764 91.0605 279.609 90.3971 279.553 89.6687C279.525 88.9404 279.511 88.199 279.511 87.4446V78.587H277.151V77.2603H279.511V73.7875C279.511 73.3452 279.441 72.942 279.3 72.5778C279.188 72.1876 278.78 71.9795 278.078 71.9535V71.5633L282.293 70.3147V77.2603H287.014V78.587H282.293Z" fill="white" fill-opacity="0.5"/>
<path d="M290.771 93.6488V93.2586C290.996 93.2586 291.193 93.1806 291.362 93.0245C291.53 92.8684 291.671 92.6863 291.783 92.4782C291.895 92.2701 291.98 92.049 292.036 91.8149C292.092 91.5547 292.12 91.3206 292.12 91.1125V80.3039C292.12 79.8616 292.05 79.4454 291.91 79.0552C291.769 78.639 291.362 78.4179 290.687 78.3919V78.0407L294.902 76.792V91.1125C294.902 91.3206 294.93 91.5547 294.986 91.8149C295.043 92.049 295.127 92.2701 295.239 92.4782C295.352 92.6863 295.492 92.8684 295.661 93.0245C295.829 93.1806 296.026 93.2586 296.251 93.2586V93.6488H290.771ZM290.982 73.0461C290.982 72.5258 291.165 72.0836 291.53 71.7194C291.924 71.3552 292.401 71.1731 292.963 71.1731C293.525 71.1731 294.003 71.3552 294.396 71.7194C294.79 72.0836 294.986 72.5258 294.986 73.0461C294.986 73.5663 294.79 73.9956 294.396 74.3337C294.003 74.6719 293.525 74.841 292.963 74.841C292.401 74.841 291.924 74.6719 291.53 74.3337C291.165 73.9956 290.982 73.5663 290.982 73.0461Z" fill="white" fill-opacity="0.5"/>
<path d="M309.611 93.922C308.206 93.922 306.942 93.7139 305.818 93.2976C304.694 92.8554 303.724 92.2701 302.91 91.5417C302.123 90.7873 301.505 89.9029 301.055 88.8883C300.633 87.8738 300.423 86.7682 300.423 85.5716C300.423 84.2969 300.662 83.1393 301.139 82.0988C301.617 81.0322 302.277 80.1218 303.12 79.3674C303.963 78.613 304.961 78.0277 306.113 77.6115C307.265 77.1952 308.515 76.9871 309.864 76.9871C311.213 76.9871 312.449 77.1952 313.573 77.6115C314.697 78.0017 315.667 78.561 316.482 79.2893C317.297 80.0177 317.929 80.8892 318.378 81.9037C318.828 82.8922 319.053 83.9848 319.053 85.1814C319.053 86.3 318.842 87.3926 318.421 88.4591C318.027 89.4996 317.423 90.4231 316.608 91.2296C315.821 92.036 314.838 92.6863 313.658 93.1806C312.506 93.6748 311.157 93.922 309.611 93.922ZM309.358 78.2748C308.347 78.3268 307.448 78.561 306.661 78.9772C305.902 79.3674 305.256 79.8876 304.722 80.538C304.216 81.1623 303.823 81.8777 303.542 82.6841C303.289 83.4905 303.162 84.31 303.162 85.1424C303.162 86.1049 303.317 87.0414 303.626 87.9518C303.963 88.8363 304.427 89.6297 305.017 90.3321C305.635 91.0345 306.366 91.5938 307.209 92.01C308.052 92.4262 308.993 92.6343 310.033 92.6343C311.072 92.6343 311.986 92.4262 312.772 92.01C313.587 91.5938 314.262 91.0605 314.796 90.4101C315.33 89.7338 315.723 88.9794 315.976 88.1469C316.257 87.3145 316.397 86.4821 316.397 85.6496C316.397 84.7912 316.257 83.9328 315.976 83.0743C315.695 82.1898 315.259 81.3964 314.669 80.6941C314.079 79.9657 313.334 79.3804 312.435 78.9381C311.564 78.4959 310.539 78.2748 309.358 78.2748Z" fill="white" fill-opacity="0.5"/>
<path d="M339.767 91.1125C339.767 91.3206 339.795 91.5547 339.851 91.8149C339.907 92.049 339.991 92.2701 340.104 92.4782C340.244 92.6863 340.385 92.8684 340.525 93.0245C340.694 93.1806 340.891 93.2586 341.115 93.2586V93.6488H335.678V93.2586C335.875 93.2586 336.057 93.1806 336.226 93.0245C336.395 92.8684 336.535 92.6863 336.647 92.4782C336.788 92.2701 336.886 92.049 336.943 91.8149C336.999 91.5547 337.027 91.3206 337.027 91.1125V83.8547C337.027 82.9182 336.886 82.0988 336.605 81.3964C336.324 80.6941 335.945 80.1088 335.467 79.6405C334.99 79.1723 334.442 78.8341 333.823 78.626C333.233 78.3919 332.629 78.2748 332.011 78.2748C331.393 78.2748 330.775 78.3919 330.156 78.626C329.566 78.8601 329.033 79.1723 328.555 79.5625C328.105 79.9267 327.726 80.3689 327.417 80.8892C327.136 81.3834 326.995 81.9037 326.995 82.45V91.1125C326.995 91.3206 327.023 91.5547 327.08 91.8149C327.136 92.049 327.22 92.2701 327.332 92.4782C327.473 92.6863 327.613 92.8684 327.754 93.0245C327.923 93.1806 328.119 93.2586 328.344 93.2586V93.6488H322.865V93.2586C323.061 93.2586 323.244 93.1806 323.413 93.0245C323.581 92.8684 323.722 92.6863 323.834 92.4782C323.975 92.2701 324.073 92.049 324.129 91.8149C324.185 91.5547 324.213 91.3206 324.213 91.1125V80.3429C324.213 79.9007 324.143 79.4844 324.003 79.0942C323.862 78.678 323.455 78.4569 322.78 78.4309V78.0797L326.995 76.831V78.9772C327.192 78.7691 327.445 78.548 327.754 78.3138C328.063 78.0537 328.428 77.8196 328.85 77.6115C329.299 77.3773 329.805 77.1952 330.367 77.0652C330.957 76.9091 331.646 76.831 332.433 76.831C333.753 76.831 334.877 77.0392 335.805 77.4554C336.732 77.8716 337.49 78.4179 338.081 79.0942C338.671 79.7446 339.092 80.473 339.345 81.2794C339.626 82.0598 339.767 82.8272 339.767 83.5816V91.1125Z" fill="white" fill-opacity="0.5"/>
<path d="M358.954 89.2005C358.954 89.8769 358.771 90.5012 358.406 91.0735C358.041 91.6458 357.535 92.153 356.889 92.5953C356.271 93.0115 355.54 93.3497 354.697 93.6098C353.854 93.8439 352.941 93.961 351.957 93.961C350.749 93.961 349.766 93.8179 349.007 93.5318C348.248 93.2196 347.602 92.9074 347.068 92.5953C346.703 92.3872 346.365 92.2181 346.056 92.088C345.747 91.9319 345.41 91.8539 345.045 91.8539V88.8883H345.466C345.551 89.2525 345.789 89.6557 346.183 90.098C346.604 90.5142 347.096 90.9044 347.658 91.2686C348.248 91.6328 348.88 91.9449 349.555 92.2051C350.257 92.4392 350.96 92.5562 351.662 92.5562C352.168 92.5562 352.688 92.5042 353.222 92.4002C353.756 92.2961 354.233 92.127 354.655 91.8929C355.104 91.6588 355.47 91.3726 355.751 91.0345C356.06 90.6703 356.214 90.241 356.214 89.7468C356.214 89.2525 356.06 88.8233 355.751 88.4591C355.442 88.0949 355.048 87.7828 354.571 87.5226C354.093 87.2365 353.545 86.9893 352.927 86.7812C352.309 86.5731 351.69 86.378 351.072 86.1959C350.342 85.9878 349.597 85.7537 348.838 85.4936C348.108 85.2334 347.447 84.9343 346.857 84.5961C346.267 84.2319 345.789 83.8027 345.424 83.3084C345.059 82.7882 344.876 82.1768 344.876 81.4745C344.876 80.8762 344.989 80.3039 345.213 79.7576C345.466 79.2113 345.86 78.743 346.394 78.3528C346.956 77.9366 347.672 77.6115 348.543 77.3773C349.414 77.1172 350.468 76.9871 351.704 76.9871C352.8 76.9871 353.643 77.0782 354.233 77.2603C354.852 77.4164 355.357 77.5854 355.751 77.7675C356.004 77.8976 356.257 78.0017 356.509 78.0797C356.762 78.1317 357.043 78.1577 357.352 78.1577V80.8892H357.015C356.509 80.0307 355.737 79.3804 354.697 78.9381C353.657 78.4959 352.59 78.2748 351.494 78.2748C350.791 78.2748 350.187 78.3658 349.681 78.5479C349.175 78.704 348.754 78.9121 348.417 79.1723C348.108 79.4064 347.869 79.6795 347.7 79.9917C347.56 80.3039 347.489 80.616 347.489 80.9282C347.489 81.3704 347.616 81.7476 347.869 82.0598C348.15 82.3719 348.515 82.6451 348.965 82.8792C349.442 83.1133 349.962 83.3344 350.524 83.5425C351.114 83.7507 351.732 83.9458 352.379 84.1279C353.166 84.362 353.952 84.6221 354.739 84.9083C355.526 85.1684 356.228 85.4936 356.847 85.8838C357.465 86.274 357.971 86.7422 358.364 87.2885C358.757 87.8088 358.954 88.4461 358.954 89.2005Z" fill="white" fill-opacity="0.5"/>
</g>
</svg>
